<svg xmlns="http://www.w3.org/2000/svg" xmlns:xlink="http://www.w3.org/1999/xlink" version="1.1" id="Layer_1" x="0px" y="0px" viewBox="0 0 2547 2161" style="enable-background:new 0 0 2547 2161;" xml:space="preserve">
<g>
	<path d="M2370.77,1100.22c2.21-49.34,0.75-98.64-5.87-147.64c-9.04-66.95-25.51-132.11-48.84-195.51   c-5.75-15.63-13.01-30.82-17.46-46.8c-9.48-34.06-19.39-67.93-32.15-100.91c-1.83-4.74-1.64-7.55,3.04-10.74   c6-4.08,6.99-9.33,4.61-14.78c-2.34-5.37-7.26-8.88-13.68-7.65c-5.62,1.08-8.09-0.92-9.92-5.51c-0.98-2.47-2.22-4.85-3.31-7.28   c-42.53-94.64-100.94-178.49-172.91-252.95c-41.82-43.26-88.06-81.37-137.39-115.83c-14.16-9.89-29.67-17.96-42.16-30.22   c-1.93-1.9-4.58-2.58-7.13-3.44c-3.14-1.06-6.29-2.28-9.13-3.96c-16.37-9.64-32.9-19.01-49.85-27.6c-3.72-1.89-6.08-4.32-7.5-8.6   c-3.59-10.81-11.1-14.51-21.79-10.97c-4.15,1.37-7.65,1.43-11.48-0.45c-3.88-1.91-7.91-3.54-11.87-5.29   c-38.45-16.97-77.74-31.66-117.94-43.96c-37.71-11.54-76.7-16.96-115.23-24.59c-16.9-3.35-33.96-5.91-52.06-9.02   c6.16-9.7,6.02-18.09-3.77-24.51c-4,0-8,0-12,0c-6.62,5.39-8.16,12.48-6.35,20.17c-2.64,1.88-5.06,1.4-7.3,1.15   c-16.87-1.93-33.79-3.18-50.73-4.35c-27.27-1.88-54.6-3.29-81.85-2.42c-20.93,0.66-41.92,0.79-62.88,2.48   c-28.89,2.32-57.73,4.88-86.37,9.08c-65.7,9.65-130.21,24.6-193.32,45.41c-58.02,19.13-114.27,42.46-168.56,70.52   c-25.18,13.02-49.36,27.8-74.2,41.4c-42.67,23.35-85.66,46.12-128.56,69.06C491.22,320.63,385.1,407.7,298.88,518.63   c-51.94,66.83-92.3,140.16-122.83,218.96c-20.17,52.06-34.2,105.81-43.64,160.84c-8.18,47.7-13.57,95.58-14.39,144.03   c-0.25,15,0.52,29.94,0.36,44.91c-0.16,15.7,1.36,31.31,2.8,46.88c3.69,39.85,9.99,79.32,19.33,118.26   c1.29,5.4,1.46,9.72-2.3,14.79c-7.7,10.37-4.76,23.24,6.78,28.7c6.62,3.14,9.16,7.66,11.1,13.99   c48.45,158.68,134.69,294.31,251.6,411.04c62.27,62.17,131.02,116.32,205.36,163.4c68.44,43.34,140.72,78.65,217.49,104.65   c68.01,23.04,137.51,39.75,208.62,49.98c49.2,7.08,98.56,11.28,148.26,11.52c36.99,0.18,73.92-0.57,110.82-3.73   c32.2-2.76,64.26-6.37,96.16-11.52c40.18-6.49,79.65-16.1,118.81-27.05c76.35-21.34,149.71-50.12,219.22-88.44   c8.19-4.51,16.65-8.31,25.39-11.67c28.31-10.89,56.19-22.82,83.51-36.03c48.41-23.39,94.51-50.67,139.05-80.81   c10.17-6.88,20.51-12.75,29.88-21.28c17.68-16.1,36.8-30.77,55.6-45.64c8.76-6.93,16.97-13.86,24.41-22.3   c11.66-13.22,24.97-24.98,37.27-37.65c4.35-4.48,8.34-6.07,14.91-4.75c14.68,2.95,26.67-10.51,21.83-24.56   c-2.19-6.37-1.51-10.67,2.93-15.15c2.34-2.36,4.45-4.99,6.33-7.72c2.98-4.33,6.33-5.99,11.85-4.43c7.1,1.99,13.86,0.07,19.76-4.47   c10.14-7.81,13.07-18.91,7.24-31.13c-2.36-4.94-2.09-8.44,0.97-12.76c6.56-9.23,12.81-18.7,18.95-28.22   c23.7-36.77,44.33-75.2,62.12-115.16c26.12-58.66,45.95-119.36,59.03-182.24c0.99-4.77,2.98-8.45,6.67-11.82   c12.02-10.98,13.72-21.87,5.94-36.74c-1.98-3.78-2.62-7.36-1.97-11.49C2367.93,1149.44,2369.66,1124.82,2370.77,1100.22z    M2308.01,809.67c7.31,52.61,8.81,105.58,6.14,158.53c-2.95,58.66-11.83,116.56-26.74,173.46c-4.98,19.01-10.15,37.96-16.41,56.6   c-0.69,2.06-0.59,4.58-3.88,6.54c31.31-119.2,38.77-238.94,19.64-360.03c-19.12-120.95-62.56-232.7-129.04-335.67   c0.69-0.38,1.39-0.76,2.08-1.14c4.69,6.33,9.45,12.6,14.05,18.98c51.7,71.77,93.03,149.08,124.11,231.91   C2304.15,775.32,2305.64,792.58,2308.01,809.67z M2076.92,1550.98c-55.53,70.9-120.18,132.32-192.93,185.3   C1950.75,1677.06,2014.67,1614.9,2076.92,1550.98z M1841.74,1756.99c-2.26-4.32-1.67-7.31,1.57-9.46   c16.19-10.74,32.42-21.41,48.64-32.11C1876.64,1731.03,1859.51,1744.21,1841.74,1756.99z M1963.62,1649.42   c2.45-6.26,45.65-53.91,67.04-74.38c-5.6,9.32-13.03,17.28-19.99,25.55c-7.07,8.41-14.47,16.56-21.97,24.59   C1981.23,1633.21,1974.84,1642.47,1963.62,1649.42z M2046.31,1572.77c-1.49,1.61-2.69,3.72-5.12,4.31   c-0.4-1.62,0.84-2.38,1.59-3.34c17.9-22.83,35.1-46.16,50.81-70.55c3.36-5.22,7.24-8.87,13.47-10.96   c12.16-4.07,18.33-14.69,16.05-27.59c-1.02-5.81,0.1-10.24,2.94-15.03c10.38-17.49,19.51-35.66,28.45-53.92   c1.41-2.89,2.95-5.71,4.43-8.57c0.47,0.2,0.95,0.41,1.42,0.61c-3.31,10.02-6.48,20.09-9.96,30.05   c-3.41,9.75-7.46,19.28-10.66,29.09c-6.18,18.98-16.42,35.44-28.85,50.94C2090.24,1523.58,2068.73,1548.56,2046.31,1572.77z    M2155.13,1372.21c-11.1,22.39-23.37,44.18-36.29,65.6c-3.74,6.2-7.01,10.02-15.58,7.77c-10.25-2.69-19.03,1.67-24.73,10.9   c-5.68,9.21-5.02,18.35,1.02,27.2c4.72,6.92,4.8,6.96,0.06,13.58c-45.94,64.23-97.97,122.95-157.56,174.91   c-25.65,22.36-52.15,43.61-79.43,63.92c-4.56,3.39-8.44,5.02-14.49,3.08c-8.73-2.8-17.55,3.23-18.8,12.94   c-0.89,6.93-4.27,10.47-9.84,13.67c-21.69,12.45-43.93,23.83-66.3,35c-4.87,2.43-9.06,2.43-14.22,0.49   c-15.48-5.83-27.24-0.44-32.37,14.98c-1.96,5.9-5.83,8.31-10.95,10.43c-51.5,21.32-104.28,38.71-158.25,52.64   c-49.11,12.68-98.87,21.65-149.17,27.78c-63.01,7.68-126.33,8.35-189.62,5.94c-41.92-1.59-83.59-6.96-124.99-14.05   c-1.64-0.28-3.23-0.93-4.88-1.07c-3.99-0.33-6.29-1.91-5.33-6.34c0.07-0.32,0.06-0.67,0.03-1c-0.61-6.81-3.83-11.22-9.3-12.75   c-6.14-1.72-11.51,0.57-15.29,6.5c-4.4,6.91-4.43,7.05-12.29,5.34c-66.59-14.5-131.49-34.4-193.89-61.94   c-15.86-7-30.33-16.74-45.05-25.87c-30.32-18.83-59.51-39.3-87.8-61.06c-0.79-0.61-1.53-1.29-2.37-1.84   c-4.77-3.12-5.48-6.54-2.3-11.68c3.76-6.07,5.05-12.95,3.1-20.19c-5.36-19.98-27.14-28.1-44.54-16.55   c-8.15,5.41-8.28,5.55-15.01-0.7c-11.49-10.65-22.84-21.44-34.16-32.27c-1.85-1.77-4.4-3.15-4.72-6.14c2-2.7,5.31-2.64,7.94-3.93   c14.13-6.93,22.91-23.29,18.66-38.28c-2.89-10.21-3.35-20.41-3.2-30.62c0.64-42.99-2.07-85.92-1.81-128.9   c0.37-60.32,0.99-120.69-0.7-180.97c-1.69-60.32-0.36-120.61-1.17-180.91c-0.19-14-0.34-27.99-0.48-41.99   c-0.02-2.33-0.02-4.68,0.31-6.98c0.43-3.03,2.21-4.14,4.88-2.23c1.88,1.35,3.51,3.07,5.15,4.72   c23.46,23.67,47.23,47.04,70.28,71.11c31.56,32.95,62.71,66.3,93.76,99.73c29.68,31.97,59.02,64.26,88.49,96.43   c28.56,31.19,57.16,62.35,85.63,93.63c33.62,36.95,67.11,74.01,101.88,109.9c8.11,8.37,15.44,17.53,23.92,25.48   c5.74,5.38,7,11.29,7.2,18.65c0.64,24.34-1.62,48.59-1.67,72.91c-0.05,25-0.2,49.99-0.54,74.99c-0.09,6.97-1.04,13.93-1.56,20.9   c-0.53,7.02,0.63,13.92,1.24,20.89c1.12,12.82,13.01,26.9,31.6,26.04c15.59-0.72,27.37-9.93,29.84-28.26   c1.75-12.98,0.44-25.96-0.77-38.82c-1-10.67-1.01-21.28-1.11-31.92c-0.19-20-0.29-39.99-0.38-59.99c-0.01-1.27,0.37-2.54,0.72-4.82   c5.48,2.58,8.62,6.89,12.1,10.6c16.63,17.73,33.11,35.6,49.62,53.44c16.29,17.6,32.47,35.3,48.87,52.79   c3.43,3.66,3.87,6.9,2.18,11.66c-4.79,13.44-1.22,25.03,9.8,33.95c23.83,19.28,47.95,38.21,71.76,57.52   c10.92,8.85,31.91,8.94,41.43-1.05c11.8-12.38,12.99-29.59,1.46-42.28c-4.25-4.67-9.2-8.7-13.66-13.19   c-28.2-28.36-56.74-56.39-84.41-85.26c-31.6-32.96-63.96-65.15-95.79-97.87c-12.77-13.13-25.39-26.43-38.39-39.33   c-4.07-4.04-6.02-8.46-5.86-14.2c0.95-33.32-1.74-66.57-1.62-99.9c0.29-77.33,0.97-154.68-0.73-231.98   c-1.3-58.99-0.37-117.94-1.11-176.91c-0.29-22.99-0.29-45.99-0.52-68.99c-0.64-64.63-1.07-129.26-2.23-193.88   c-0.23-12.61-1.14-25.25-1.31-37.9c-0.07-5.08,1.76-8.76,5.37-12.27c16.24-15.81,32.17-31.93,48.37-47.77   c23.58-23.06,47.19-46.09,70.98-68.94c27.39-26.3,54.96-52.41,82.49-78.56c39.36-37.39,78.49-75.04,118.29-111.95   c14.91-13.83,28.58-28.91,43.9-42.3c1.25-1.1,2.24-2.76,3.68-3.34c13.55-5.4,20.21-17.85,29.08-28.05   c8.96-10.3,18.28-20.31,26.83-30.93c13.35-16.58,9.6-38.52-8.08-49.21c-11.76-7.11-23.59-5.89-35.09,0.66   c-4.64,2.64-8.55,6.3-11.95,10.5c-7.98,9.84-15.94,19.72-22.8,30.36c-9.1,14.13-20.8,25.97-32.27,38.03   c-28.92,30.43-59.04,59.66-89.2,88.83c-1.44,1.39-2.87,2.78-4.3,4.18c-35.91,35.24-71.41,70.92-107.84,105.61   c-44.41,42.3-87.52,85.9-130.93,129.21c-35.86,35.78-71.75,71.54-107.06,107.87c-26.23,26.98-51.48,54.91-77.28,82.3   c-18.27,19.4-36.96,38.41-55.07,57.95c-23.77,25.65-47.25,51.55-70.66,77.53c-12.96,14.38-27.07,27.58-40.79,41.19   c-3.54,3.51-7.06,7.11-10.16,11.02c-8.14,10.27-7.88,21.56,0.39,29.75c7.54,7.47,19.52,7.74,29.08-0.25   c10.47-8.75,20.86-17.7,30.43-27.41c29.24-29.65,58.38-59.42,86.92-89.74c14.39-15.29,29.15-30.2,43.73-45.3   c29.63-30.68,60.1-60.55,89.18-91.74c14.58-15.64,30.82-29.45,45.47-44.93c1.29-1.36,2.45-3.26,5.44-2.84   c1.42,3.26,1.04,7,0.42,10.41c-1.38,7.63-1.15,15.27-1.18,22.92c-0.18,55.66,0.48,111.34-0.68,166.98   c-2.31,111.29-0.44,222.61-2.26,333.88c-0.98,59.97,0.24,119.95-1.59,179.89c-0.03,0.99-0.19,1.97-0.34,3.45   c-3.11-0.13-4.37-2.72-6.09-4.37c-29.97-28.94-58.08-59.7-86.96-89.7c-23.33-24.23-46.42-48.7-69.34-73.32   c-23.84-25.59-47.9-50.97-72.16-76.17c-24.25-25.19-48.59-50.33-72.1-76.21c-32.75-36.06-68.33-69.26-102.82-103.55   c-14.16-14.08-28.63-27.9-42.85-41.94c-6.76-6.68-6.69-6.86-0.62-13.72c32.43-36.67,64.85-73.35,98.25-109.16   c27.26-29.22,53.88-59.04,81.76-87.7c26.01-26.74,51.58-53.9,77.16-81.06c36.09-38.32,72.94-75.91,109.61-113.66   c29.48-30.34,58.53-61.1,87.74-91.7c5.29-5.54,10.4-11.24,15.61-16.85c4.55-4.91,9.44-9.07,15.88-11.71   c6.6-2.71,11.59-7.94,14.29-14.72c2.37-5.96,5.73-11.14,9.64-16.21c5.63-7.29,9.25-15.53,7.31-25.11   c-4.89-24.13-31.36-28.46-48.27-16.89c-13.5,9.24-21.07,22.96-25.77,38.22c-1.81,5.87-4.41,10.85-8.23,15.68   c-22.98,29.01-47.69,56.52-72.52,83.92c-32.42,35.78-65.04,71.38-97.68,106.96c-26.79,29.21-53.87,58.14-80.56,87.44   c-39.7,43.58-78.9,87.59-117.54,132.12c-29.27,33.72-57.97,67.9-86.46,102.27c-0.64,0.77-1.2,1.6-1.85,2.35   c-1.11,1.28-2.36,2.55-4.21,1.79c-1.81-0.75-1.83-2.62-2.01-4.26c-0.14-1.32-0.19-2.66-0.15-3.99c1.07-35.66-1.77-71.25-1.64-106.9   c0.24-65.66,0.85-131.35-0.77-196.98c-1.03-41.64,0.26-83.3-1.84-124.89c-0.74-14.63-1-29.28-1.89-43.9   c-0.74-12.21-8.15-20.08-19.04-20.7c-9.93-0.56-19,7.67-20.49,19.33c-0.75,5.92-0.26,11.98-0.56,17.97   c-2.86,57.93-1.42,115.93-2.68,173.87c-1.79,81.99-1.58,163.98-1.63,245.97c0,6.69-2.01,9.97-8.39,12.43   c-10.19,3.92-11.6,11.08-4.93,19.64c1.64,2.1,3.3,4.25,5.28,5.99c6.56,5.79,9.08,13.01,7.82,21.52c-2.2,14.92-1.4,29.93-1.32,44.9   c0.03,6.06-1.8,10.81-5.7,15.39c-19.87,23.33-38.95,47.33-60.07,69.58c-2.28,2.41-4.48,4.97-6.26,7.76   c-2.44,3.81-1.94,7.66,1.18,10.98c3.19,3.39,7.56,3.83,11.76,0.88c2.43-1.71,4.53-3.93,6.62-6.06   c16.32-16.65,33.56-32.42,48.67-50.25c0.38-0.45,1.15-0.58,2.37-1.16c2.01,3.8,1.29,7.19,1.29,10.44   c-0.12,88.99,0.76,178.01-0.82,266.98c-1.15,64.97-0.72,129.93-1.71,194.89c-0.15,9.97-1.03,19.93-1.6,29.9   c-0.17,3.04-0.88,5.93-3.18,8.78c-4.49-0.99-6.61-5.06-9.28-8.15c-23.54-27.27-45.63-55.68-66.2-85.26   c-55.58-79.93-98.67-166.03-127.55-259.1c-17.62-56.81-29.52-114.77-35.59-174c-4.23-41.23-4.19-82.49-3.73-123.82   c0.06-5.82,1.41-9.46,7.21-12.55c11.99-6.4,13.23-20.15,2.7-28.99c-5.11-4.29-6.4-8.73-5.81-14.74   c2.73-27.89,7.85-55.39,12.86-82.92c0.98-5.35,3.9-6.32,8.93-6.81c18.41-1.79,28.79-18.39,22.04-34.35   c-2.15-5.08-5.52-9.5-10.4-11.75c-6.08-2.81-6.09-6.65-4.46-12.12c9.61-32.3,20.81-64.01,33.96-95.03   c35.14-82.93,82.54-158.24,141.21-226.47c28.07-32.64,58.52-62.98,90.66-91.62c5.78-5.15,5.85-5.07,11.71,0.11   c6.75,5.96,15.44,6.37,21.81,1.01c6.65-5.59,7.61-13.81,2.49-21.47c-4.7-7.03-4.74-7.08,1.69-12.55   c19.31-16.44,39.75-31.4,60.75-45.59c27.08-18.3,55.27-34.77,83.74-50.81c19.05-10.74,39.24-18.11,60.28-23.62   c47.1-12.35,94.75-21.98,143.06-27.96c26.75-3.31,53.64-5.43,80.59-7.03c25.66-1.52,51.29-1.6,76.93-1.42   c44.33,0.32,88.45,3.84,132.43,9.46c78.3,10,154.56,28.44,228.97,54.57c91.78,32.23,176.86,77.47,256.7,132.86   c59.09,41,113.55,87.4,163.16,139.41c64.54,67.67,119.34,142.4,162.77,225.41c24.77,47.34,47.51,95.53,63.9,146.42   c18.74,58.19,31.07,117.76,37.99,178.59c5.29,46.51,6.57,93.04,5.4,139.7c-0.59,23.32-3.83,46.47-6.32,69.64   c-2.67,24.83-5.52,49.64-10.02,74.25C2170.82,1339.2,2163.25,1355.84,2155.13,1372.21z M1821.34,1770.07   c-1.23,3.77-4.27,4.82-6.65,6.46c-23.86,16.45-48.21,32.13-73.41,46.49c-0.58,0.33-1.13,0.73-1.74,0.98   c-2.27,0.93-4.81,4.08-6.94,1.24c-2.02-2.69-1.76-6.61,0.81-9.21c2.05-2.07,4.82-3.51,7.42-4.97c22.64-12.74,44.98-26,66.62-40.39   C1811.81,1767.78,1816.04,1765.26,1821.34,1770.07z M1303.96,1926.18c-0.93-2.3,0.2-3.9,2.61-4.33c2.61-0.47,5.25-0.94,7.89-1.1   c47.62-2.82,94.66-9.9,141.42-19.09c75.77-14.89,149.18-37.54,220.38-67.38c2.43-1.02,4.89-1.96,7.34-2.94   c0.31,0.68,0.62,1.36,0.93,2.05c-121.76,60.48-249.81,99.8-387.3,114.12C1304.02,1940.8,1307.25,1934.31,1303.96,1926.18z    M1414.73,1932.95c92.28-19.45,181.07-49.13,265.86-90.51c6.71-3.27,12.84-5.98,18.85,1.85c-1.41,3.65-5.27,4.46-8.32,6.04   c-25.18,13.05-51.64,23.1-78.15,33c-63.77,23.8-129.27,41.37-196.27,53.29c-18.66,3.32-37.46,5.81-56.22,8.58   c-2.92,0.43-5.92,0.35-8.88,0.5C1372.6,1940.99,1393.74,1937.38,1414.73,1932.95z M253.18,1046.09   c2.17,56.04,8.93,111.53,22,166.16c1.46,6.12,3.58,12.17,2.81,18.66c-0.15,1.28-0.07,2.85,0.54,3.91   c8.53,14.71,9.83,31.7,14.91,47.49c22.1,68.59,52.09,133.37,90.77,194.16c4.89,7.69,11.8,14.51,11.3,24.89   c-0.15,3.04,2.71,5.53,5.73,6.32c4.68,1.23,7.02,4.71,9.57,8.25c34.36,47.74,72.77,91.99,115.48,132.43   c62.04,58.74,130.54,108.64,205.65,149.44c24.91,13.53,50.33,25.96,76.3,37.33c8.54,3.74,16.86,8,25.1,12.36   c78.08,41.36,159.85,73.23,245.31,95.64c1.28,0.33,2.5,0.86,3.75,1.29c0,0.49,0.01,0.99,0.01,1.48c-11.5-1.62-23.03-3.1-34.51-4.9   c-85.98-13.49-169.13-37-249.2-71.12c-96.96-41.32-186.04-95.37-265.67-164.74c-60.64-52.82-114.46-111.71-159.1-178.66   c-60.76-91.12-103.83-189.67-124.63-297.67c-8.08-41.94-15.07-83.99-17.36-126.6c-2.13-39.57-2.04-79.21,0.88-118.84   c3.93-53.34,12.85-105.77,26.5-157.43c23.67-89.6,60.58-173.48,109.21-252.28c0.66-1.07,1.01-2.51,3.9-2.96   c-2.73,5.23-5.07,9.83-7.51,14.38c-38.23,71.46-67.46,146.39-86.57,225.18c-10.85,44.75-18.27,90.05-22.14,135.97   C253.42,979.5,251.89,1012.78,253.18,1046.09z M657.25,1742.64c3.76-3.68,7.55-4.79,12.08-1.59c1.09,0.77,2.17,1.55,3.22,2.37   c18.85,14.66,38.29,28.55,59.65,43.44C719.04,1782.6,669.67,1753.17,657.25,1742.64z M876.57,1916.38   c50.43,15.28,101.3,28.45,153.33,36.95c30.56,4.99,61.24,8.95,92.12,11.45c27.22,2.2,54.45,3.97,81.92,4.35   c-27.47,0.09-55.07,1.05-82.71-0.87c-24.58-1.71-49.12-3.42-73.6-6.33c-49.68-5.9-98.65-15.43-147.05-28.01   c-116.19-30.22-224.16-78.74-323.75-145.8c-61.91-41.69-118.09-90.15-168.75-144.91c-53.69-58.03-98.64-122.34-135.98-192   c-1.1-2.05-2.06-4.18-3.06-6.29c-1.03-2.18-0.36-3.85,1.62-5.08c0.57-0.35,1.16-0.66,1.7-1.05c11.38-8.27,11.41-8.29,17.88,4.64   c33.9,67.75,76.48,129.58,126.74,186.2c70.82,79.78,153.48,144.71,246.36,196.9C731.02,1864.57,802.31,1893.88,876.57,1916.38z    M1174.46,1953.33c-16.01-0.76-31.54-4.92-47.16-8.18c-77.5-16.19-152.57-40.03-224.96-72.16c-0.58-0.26-1.05-0.77-1.56-1.16   c33.32,9.75,66.57,19.24,100.41,26.55c44.28,9.57,88.92,16.62,134.09,20.53c39.5,3.42,79.02,5.43,118.65,5.12   c5.65-0.04,11.29-0.71,16.93-1.02c2.64-0.15,4.97,0.54,4.18,3.84c-2.04,8.55,0.14,15.65,9.07,21.67   c-9.8,1.07-17.29,2.28-24.82,2.64C1231.04,1952.47,1202.78,1954.67,1174.46,1953.33z M2231.87,871.01   c5.86,5.36,10.52,8.99,16.61,9.92c3.28,0.5,3.81,3.24,4.05,6.04c0.45,5.3,0.83,10.62,1.51,15.89c0.48,3.69-1.27,6.18-3.29,8.98   c-5.51,7.63-5.57,12.54,0.28,19.82c2.9,3.61,4.35,7.38,4.7,11.77c0.29,3.65,0.56,7.31,0.54,10.96   c-0.3,54.66-4.39,108.99-14.6,162.77c-2.72,14.35-5.42,28.69-9.71,42.76C2247.48,1064.33,2247.69,968.73,2231.87,871.01z    M2220.21,670.09c-15.29-44.48-34.26-87.34-56.9-128.57c-1.84-3.36-3.46-6.84-4.42-10.57c58.39,95.84,96.26,199.14,114.04,310.82   c-11.41-3.15-13.84-10.71-15.26-19.73C2249.57,770.33,2237.25,719.62,2220.21,670.09z M2220.73,719.53   c10.51,34.84,18.35,70.22,24.29,106.09c0.96,5.8,0.24,9.47-5.45,12c-4.89,2.18-7.65,6.99-11.13,12.21   c-4.43-18.76-8.22-36.27-12.71-53.6c-22.4-86.5-57.86-167.36-105.49-242.92c-39.09-62.01-84.78-118.71-136.84-170.29   c-66.02-65.41-140.03-120.05-221.42-164.82c-87.56-48.16-180.07-83.31-277.49-105.48c-43.55-9.91-87.56-16.96-132-21.54   c-36.13-3.73-72.3-6.36-108.65-6.12c35.93-1.04,71.9-2.07,107.76-0.18c139.72,7.36,274.21,37.63,402.4,94.32   c60.82,26.89,118.54,59.4,173.21,97.27c12.35,8.56,23.6,18.51,34.87,28.4c55.07,48.34,104.27,102.02,146.61,161.92   C2153.43,544.27,2193.37,628.83,2220.73,719.53z M2230.31,1067.32c-3.08-54.03-11.32-107.29-24.85-159.62   c-19.07-73.78-44.51-145.3-79.98-212.92c-31.38-59.83-69.2-115.46-112.07-167.62c-50.15-61-106.77-115.31-169.16-163.78   c-57.89-44.97-119.74-83.53-185.59-115.45c-93.34-45.25-190.72-79.05-292.63-99.29c-41.51-8.24-83.31-14.58-125.4-18.75   c-49.48-4.91-99.14-5.92-148.77-3.83c-51.25,2.16-102.27,7.4-152.73,17.06c-1.27,0.24-2.61,0.16-4.2-0.69   c3.27-1.22,6.5-2.55,9.8-3.63c63.15-20.68,127.56-35.87,193.47-44.66c15.87-2.12,31.76-3.48,47.78-3.59   c37.66-0.26,75.33-0.71,112.9,2.3c66.52,5.32,132.23,15.76,196.85,32.63c121.73,31.79,235.11,81.97,338.67,153.76   c58.84,40.78,112.99,87.03,161.64,139.57c88.27,95.34,152.76,204.77,193.27,328.26c17.92,54.64,29.94,110.62,36.72,167.67   c3.03,25.46,4.05,51.11,5.42,76.73C2232.8,1016.89,2230.32,1042.05,2230.31,1067.32z M1787.36,193.62   c-73.08-34.7-148.82-61.92-227.46-81.02c-50.22-12.2-101.04-21.12-152.41-26.56c-22.82-2.42-45.76-3.86-68.73-4.96   c-23.33-1.11-46.63-1.76-69.93-1.23c-28.95,0.66-57.88,2.12-86.71,5.21c-18.2,1.95-36.51,2.9-54.77,4.29   c-27.23,2.08-54.34,5.2-81.29,9.65c-1.6,0.26-3.24,0.28-4.85,0.41c-0.07-0.43-0.14-0.85-0.22-1.28   c15.23-3.16,30.43-6.48,45.71-9.44c37.95-7.34,76.28-12.05,114.73-15.76c13.58-1.31,27.24-2.16,40.88-2.38   c17.66-0.28,35.23-2.17,52.92-1.99c122.17,1.19,241.55,18.99,356.99,59.94c50.37,17.87,98.43,40.91,144.99,67.11   c1.11,0.62,2.54,0.98,3.11,3.86C1795.57,197.33,1791.43,195.55,1787.36,193.62z M1370.21,67.48c-3.66-0.06-7.33-0.1-10.99-0.34   c-41.6-2.74-83.19-2.44-124.81-0.13c-17.96,1-35.85,2.47-53.75,4.19c-37.83,3.63-75.22,9.85-112.49,17.1   c-45.83,8.92-90.28,23.3-135.68,33.89c-12.56,2.93-25.07,6.06-37.6,9.1c157.13-55.35,318.21-81.05,487.08-63.8   C1376.61,67.49,1373.41,67.53,1370.21,67.48z M1080.38,99.23c-16.59,3.67-33.23,7.11-49.75,11.06   c-39.89,9.54-79.15,21.27-117.56,35.67c-21.56,8.08-44.42,10.73-66.32,17.27C892.77,135.81,1017.5,101.68,1080.38,99.23z    M2185.15,1376.37c16.83-43.28,28.95-87.84,36.63-133.64c2.04-12.19,6.86-23.65,10.27-35.48c14.78-51.33,25.02-103.54,30.85-156.6   c3.79-34.45,5.46-69.03,4.69-103.7c-0.13-5.83,0.68-10.72,5.22-15.32c6.36-6.45,6.34-14.3-0.35-20.31   c-6.39-5.74-6.28-12.82-6.85-20c-0.58-7.3-1.33-14.64,5.38-20.23c1.91-1.59,2.74-4.49,4.07-6.79   c7.78,27.42,11.36,126.56,6.57,180.94c-5.34,60.6-16,120.05-32.73,178.48c-16.8,58.67-39.67,114.86-69.25,168.41   C2181.47,1386.86,2183.13,1381.55,2185.15,1376.37z M1060.06,56.11c29.63-7.89,59.65-13.96,89.83-19.3   c29.84-5.28,59.9-9.16,90.06-11.89c44.81-4.06,89.79-5.86,134.75-4.1c64.62,2.53,129,8.64,191.98,23.79   c47.28,11.37,93.35,27.22,139.25,43.35c1.57,0.55,3.1,1.22,4.63,1.87c2.66,1.14,3.57,2.85,1.74,5.45c-0.77,1.09-1.6,2.15-2.23,3.31   c-3.14,5.84-2.87,11.58,1.03,16.92c3.84,5.25,9.11,7.95,15.64,6.64c6.79-1.36,11.17-5.71,12.91-12.45   c0.57-2.21,0.63-4.54,1.08-8.03c15.42,5.65,29.2,12.3,43.19,18.48c3.37,1.49,4.68,4.38,6.03,7.53   c5.14,11.98,11.19,14.79,23.63,10.68c3.16-1.05,5.77-1.04,8.55,0.47c14.93,8.12,29.84,16.26,44.79,24.33   c3.36,1.81,4.91,3.95,3.52,8.03c-2.66,7.78,0.47,13.79,6.96,18c6.48,4.2,13.05,3.16,18.18-2.23c4.46-4.68,7.59-1.78,11.23,0.55   c30.07,19.23,58.93,40.16,86.52,62.8c57.96,47.58,109.74,101.09,154.24,161.52c51.35,69.73,91.48,145.39,119.96,227.2   c0.88,2.52,1.73,5.04,2.48,7.6c0.16,0.54-0.17,1.22-0.49,3.14c-4.13-7.39-7.83-13.89-11.43-20.44   c-39.8-72.55-88.28-138.75-144.9-199.09c-36.79-39.21-76.73-74.89-118.35-108.84c-19.86-16.2-38.49-33.89-58.48-50.01   c-82.21-66.29-173.45-116.57-271.89-154.2c-67.14-25.66-136.38-43.57-207.26-55.03c-32.52-5.26-65.26-8.83-98.2-11.04   c-41.64-2.8-83.28-2.26-124.88-1.2c-32.59,0.83-65.08,4.22-97.42,8.74c-24.4,3.41-48.75,7.05-72.95,11.75   c-7.07,1.37-6.57,1.06-9.23-7.61C1052.61,56.57,1056.73,56.99,1060.06,56.11z M891.21,113.55c44.1-19.02,89.22-35.19,135.41-48.37   c9.39-2.68,9.37-2.69,12.98,6.44c0.37,0.93,0.95,1.77-0.21,4.01c-67.51,12.11-131.75,37.85-197.16,60.17   C858.55,128.36,874.75,120.65,891.21,113.55z M863.5,149.5c-33.15,14.02-65.92,28.99-100.71,39.03   C795.24,172.76,828.91,159.94,863.5,149.5z M773.67,207.99c-26.89,15.62-53.46,31.48-79.18,48.75   c-23.24,15.61-45.75,32.26-68.24,48.92c-4.28,3.17-8.31,6.67-13.35,8.71c-1.5,0.61-3.11,1.55-4.08,2.8   c-8.49,10.89-19.89,18.63-29.89,27.87c-90.44,83.63-161.93,181.06-213.06,293.22c-16.32,35.82-30.09,72.64-41.01,110.47   c-2.05,7.1-4.89,11.86-12.52,14.95c-16.6,6.73-20.56,26.12-8.57,39.6c3.81,4.29,4.8,7.97,3.61,13.41   c-5.93,27.02-10.4,54.3-13.24,81.83c-0.73,7.11-2.52,12.91-9.31,17.49c-8.27,5.58-9.09,17.22-1.95,24.68   c5.54,5.79,6.2,11.88,6.07,19.08c-0.36,19.99-0.8,40-0.3,59.98c1.9,76.7,14.35,151.78,36.2,225.27   c27.94,94,70.05,181.33,125,262.48c25.44,37.57,53.31,73.28,83.96,106.77c3.42,3.73,6.14,7.59,7.73,12.56   c3.41,10.72,10.11,18.64,21.32,21.99c3.96,1.18,7.02,3.66,9.89,6.53c13.18,13.22,26.24,26.61,40.75,38.34   c8.06,6.52,10.84,13.69,7.42,23.99c-11.23-7.36-21.52-15.66-31.83-23.94c-64.87-52.07-121.27-112.08-168.88-180.33   c-3.22-4.62-6.8-9.05-7.06-15.15c-0.12-2.76-1.74-5.24-4.23-6.45c-6.49-3.14-9.37-9.31-12.85-14.9   c-40.01-64.24-71.62-132.37-94.48-204.54c-2.21-6.99-4.52-13.95-6.95-20.86c-1.46-4.16-0.91-7.24,2.32-10.77   c7.78-8.5,5.69-17.81-4.98-20.7c-5.83-1.58-7.18-5.02-8.24-9.69c-5.8-25.68-10.58-51.54-14.34-77.6   c-7.4-51.27-9.72-102.83-7.68-154.5c2.05-52,8.72-103.5,19.92-154.38c27.38-124.39,78.9-238.03,151.91-342.12   c13.03-18.58,28.29-35.4,43.49-52.2c72.55-80.17,155.7-147.32,248.67-202.45C740.76,218.19,757.23,213.23,773.67,207.99z    M654.33,258.4c-14.68,10.63-29.36,21.27-44.04,31.9C623.38,277.65,635.76,263.66,654.33,258.4z M599.37,289.65   c0.42,0.32,0.84,0.64,1.26,0.96c-9.52,8.73-19.16,17.34-28.55,26.2c-67.17,63.43-132.58,128.4-185.65,204.71   c-64.34,92.52-112.55,192.46-142.05,301.35c-13.63,50.31-22.57,101.45-27.24,153.28c-4.13,45.85-3.81,91.8-0.93,137.77   c6.43,102.41,34.31,199.15,75.57,292.56c37.36,84.59,87.81,160.66,148.72,229.91c61.44,69.83,132.89,127.83,211.77,176.86   c3.11,1.93,6.23,3.86,9.32,5.82c0.24,0.15,0.32,0.55,0.69,1.23c-3.35,0.1-5.62-1.93-8-3.32   c-61.27-35.65-118.37-76.94-170.55-125.04c-80.26-74-145.1-159.48-193.47-257.4c-2.69-5.44-4.43-10.62-3.65-17.09   c1.05-8.76-2.75-16.5-9.99-21.69c-5.18-3.72-8.13-8.57-10.43-14.22c-27.01-66.34-46.07-134.87-56.32-205.76   c-7.5-51.88-10.39-104.11-8.19-156.46c3.32-78.92,16.64-156.21,40.48-231.6c39.73-125.62,103.58-237.8,188.37-338.35   c48.09-57.04,102.02-107.94,160.86-153.71C594.02,293.58,596.71,291.64,599.37,289.65z M379.11,479.31   c43.12-53.73,91.89-101.86,145.32-145.29c2.84-2.31,5.77-4.52,8.79-6.59c6.04-4.12,12.17-8.1,18.27-12.15   c-21.14,20.52-42.95,40.08-63.49,60.95c-72.45,73.57-134.15,155.08-182.06,246.8c-44.89,85.94-77.08,176.27-94.58,271.7   c-6.85,37.36-11.41,75-13.16,113.01c-0.67,14.64-1.44,29.26-1.45,43.92c-0.03,82.13,11.64,162.61,34.09,241.56   c7.94,27.9,17.4,55.28,28.36,82.14c1.26,3.08,2.46,6.19,3.65,9.3c1.07,2.78-0.04,4.07-2.78,5.16c-15.13,6.06-15.02,6.1-21.37-8.98   c-28.74-68.22-48.18-139.04-58.62-212.28c-3.61-25.37-6.3-50.89-7.04-76.56c-0.38-12.98-1.55-25.91-1.64-38.92   c-0.65-97.85,14.85-192.96,46.79-285.5C254.68,661.86,309.27,566.34,379.11,479.31z M1567.63,1979.25   c-65.04,23.71-132.07,39.41-200.41,49.65c-27.97,4.19-56.08,7.26-84.36,9.1c-41.97,2.73-83.95,2.76-125.88,1.11   c-32.24-1.27-64.35-4.92-96.41-8.99c-61.63-7.82-122.06-21.16-181.44-39.05c-84.5-25.45-165.35-59.84-242.71-102.32   c-59.51-32.68-114.99-71.24-166.33-115.64c-61.02-52.76-115.02-111.94-161.42-178.02c-58.46-83.26-104.04-172.86-134.15-270.17   c-2.36-7.64-4.55-15.33-6.83-22.99c-1.19-4-0.85-7.34,1.68-11.2c7.5-11.42,5.35-22.21-6.08-29.03c-5.16-3.08-7.56-6.79-8.76-12.33   c-6.67-30.63-11.23-61.59-15.04-92.68c-3.57-29.14-4.62-58.45-5.46-87.73c-0.77-26.95,0.99-53.92,2.98-80.84   c2.53-34.27,6.95-68.28,14.43-101.81c22.99-103.09,62.24-199.48,119.13-288.64c26.6-41.68,56.3-80.96,88.88-118.09   c3.47-3.96,7.16-7.72,12.04-10.51c-3.8,4.76-7.58,9.55-11.42,14.29c-73.42,90.59-128.42,191.16-163.54,302.44   c-16.39,51.91-27.63,104.96-34.36,159c-4.79,38.41-7.59,76.96-6.94,115.61c1.38,81.03,13.43,160.54,36.78,238.24   c10.37,34.51,22.87,68.22,37.44,101.17c2.69,6.08,5.35,12.11,5.93,18.96c0.45,5.38,2.64,10.38,6.84,14.09   c4.62,4.08,7.39,9.34,10.11,14.71c33.32,65.79,75.25,125.71,123.81,181.07c94.6,107.85,208.05,190.44,337.81,250.87   c79.49,37.02,162.5,63.59,248.56,80.31c42.5,8.26,85.41,13.67,128.62,17.15c41.92,3.37,83.85,4.27,125.81,3.01   c15.93-0.48,31.94-1.01,47.84-2.96c6.24-0.77,12.68-0.66,18.96-0.14c34.56,2.91,69.17,4.28,103.82,3.24   c48.95-1.46,97.71-5.15,146.15-12.88c38.85-6.2,77.32-13.99,115.35-24.04c1.25-0.33,2.56-0.4,3.84-0.59   C1625.42,1957.2,1596.71,1968.65,1567.63,1979.25z M1720.75,1910.37c-9.4,5.2-19.9,7.58-30.04,10.79   c-58.56,18.55-118.41,31.47-179.24,39.68c-25.72,3.47-51.62,5.44-77.53,7.3c-30.64,2.2-61.25,1.31-91.97,0.93   c19.61-3.49,39.26-6.75,58.82-10.52c52.41-10.1,103.74-24.21,154.2-41.66c42.52-14.7,84.92-29.61,125.99-48.12   c92.29-41.58,177.82-93.98,255.62-158.83c49.78-41.49,95.67-86.91,137.11-136.77c1.44-1.74,2.57-3.92,6.65-5.14   c-21.33,35.92-43.92,68.84-68.89,100.15C1931.16,1768.85,1833.14,1848.24,1720.75,1910.37z M2346.45,1162.21   c-0.77,6.95-4.5,9.33-10.61,11.06c-14.79,4.19-22.55,15.27-21.42,29.62c0.76,9.66,5.53,16.91,13.77,21.95   c7.84,4.8,7.96,4.84,6.39,12.98c-8.34,43.29-20.55,85.49-36.05,126.75c-2.7,7.19-2.86,7.13-10.35,6.3   c-6.25-0.69-11.48,2.25-13.65,7.69c-2.17,5.41-0.66,11.32,5.51,14.34c5.64,2.76,5.13,5.59,3.12,10.17   c-22.69,51.72-49.64,101.06-81.63,147.64c-3.01,4.38-6.44,6.75-12.02,7.57c-18.54,2.72-26.68,14.86-22.87,33.44   c0.76,3.73,0.03,6.45-2.25,9.17c-4.28,5.11-8.54,10.24-12.71,15.44c-2.39,2.98-5.23,4.67-9.07,5.56   c-9.43,2.21-15.07,8.4-15.91,18.14c-0.4,4.67-2.31,8.3-5.39,11.46c-13.02,13.37-26.1,26.67-39.17,40c-2.4,2.45-5.12,4.02-8.7,4.34   c-7.14,0.63-11.82,4.35-12.76,11.73c-0.46,3.62-2.48,6.1-5.02,8.33c-17.53,15.4-35.49,30.26-53.97,44.53   c-4.91,3.79-12.32,2.1-15.85,7.66c-3.27,5.15-7.04,9.47-12.06,13.02c-20.97,14.82-42.43,28.88-64.44,42.08   c-28.88,17.32-58.56,33.18-89.01,47.59c-3.24,1.53-6.35,3.49-10.31,3.18c17.04-12.47,34.14-24.58,50.76-37.36   c100.32-77.11,182.86-169.86,245.73-279.83c13.23-23.14,25.74-46.73,36.16-71.29c8.64-20.39,21.72-38.2,32.1-57.56   c37.8-70.51,75.16-141.24,101.06-217.27c22.1-64.89,37.25-131.33,44.01-199.63c3.18-32.18,5.39-64.42,4.97-96.74   c-0.26-20.29-0.83-40.62-2.96-60.86c-0.52-4.94-0.52-9.92-0.84-16.66c2.69,3.36,2.98,5.84,3.59,8.19   c10.89,42.01,17.63,84.74,22.35,127.85c3.52,32.17,5.24,64.44,5.16,96.73C2352.02,1100.45,2349.88,1131.39,2346.45,1162.21z"/>
	<path d="M10.1,1670.67c-2.48,1.61-4.74,3.54-7.1,5.33c0,4.67,0,9.33,0,14c2.33,1.83,4.56,3.8,7,5.46   c6.94,4.72,15.22,3.88,20.68-1.94c5.45-5.82,5.52-14.69,0.16-20.7C25.72,1667.09,17.07,1666.14,10.1,1670.67z"/>
	<path d="M1151.45,2133.65c-5.26-3.29-11.98-2.46-16.45,2.04c-4.48,4.51-5.09,10.98-1.3,16.36c1.52,2.16,3.52,3.97,5.3,5.94   c4,0,8,0,12,0c1.99-2.64,4.45-5.05,5.87-7.97C1159.77,2144.06,1157.31,2137.33,1151.45,2133.65z"/>
	<path d="M2541.06,1327.06c-4.35-2.4-8.37-1.37-11.76,1.87c-3.46,3.3-4.27,7.42-2.16,11.75c2.08,4.27,5.73,6.16,10.49,5.96   c2.75-0.12,5.04-1.4,7.38-2.63c0-4.67,0-9.33,0-14C2543.69,1329.01,2542.48,1327.84,2541.06,1327.06z"/>
	<path d="M66.86,1919.72c-14.73-0.09-27.96,13-27.52,27.25c0.46,14.92,12.03,26.06,27.21,26.18c15.88,0.13,27.08-11.05,27-26.95   C93.47,1931.28,81.92,1919.82,66.86,1919.72z"/>
	<path d="M2195.93,282.02c9.98-0.22,19.01-9.35,19.26-19.46c0.25-10.35-9.31-19.99-19.73-19.89c-10.73,0.1-19.76,9.18-19.77,19.88   C2175.69,272.87,2185.43,282.25,2195.93,282.02z"/>
	<path d="M309.4,1705.51c-8.58,0.14-15.12,6.94-14.79,15.36c0.31,7.93,6.9,14.42,14.79,14.57c8.03,0.15,15.57-7.16,15.49-15.01   C324.81,1712.31,317.6,1705.38,309.4,1705.51z"/>
	<path d="M96.32,415.82c-5.56-0.21-11.09,5.02-11.15,10.54c-0.06,5.83,4.88,10.58,10.93,10.51c6.05-0.07,10.86-4.96,10.62-10.8   C106.53,420.89,101.59,416.02,96.32,415.82z"/>
	<path d="M2486.42,925.08c-4.14,0.17-7.49,3.55-7.54,7.6c-0.05,4.08,3.33,7.51,7.47,7.6c4.51,0.09,8.33-3.76,8.04-8.11   C2494.11,928.02,2490.62,924.91,2486.42,925.08z"/>
	<path d="M785.83,18.37c3.86,0.06,7.17-3.06,7.19-6.77c0.02-3.61-3.38-7.14-6.94-7.21c-3.52-0.07-7.08,3.37-7.2,6.96   C778.76,15.04,781.98,18.3,785.83,18.37z"/>
	<path d="M1210.19,2092.45c-3.33-0.32-6.46,3.06-5.95,6.31c0.53,3.38,2.74,5.05,6.17,5.25c3.23-0.63,5.42-2.38,5.39-5.89   C1215.78,2094.55,1213.47,2092.77,1210.19,2092.45z"/>
	<path d="M1284.44,699.69c-5.45-3.24-12.88-2.15-17.19,3.07c-2.29,2.78-3.91,6.17-5.54,9.43c-14.72,29.48-29.33,59.02-44.1,88.48   c-3.77,7.52-5.01,7.56-10.33,1.56c-0.44-0.5-0.76-1.1-1.22-1.58c-8.53-8.88-16.87-17.95-25.69-26.54   c-6.47-6.3-16.72-6.43-22.69-1.03c-6.22,5.62-6.4,14.79-0.35,22.56c1.22,1.57,2.69,2.94,4.08,4.38   c10.59,11.04,21.02,22.26,31.87,33.04c4.49,4.46,5.4,8.45,2.29,14.07c-3.37,6.1-5.95,12.63-8.87,18.98   c-4.17,9.07-8.39,18.12-12.49,27.22c-2.48,5.51-2.84,10.99,1.35,15.92c6.65,7.82,18.12,6.44,23.23-3.15   c4.06-7.62,7.32-15.67,11.02-23.49c3.22-6.81,6.57-13.57,9.98-20.57c1.54,0.88,2.6,1.17,3.18,1.86   c10.94,13.03,23.72,24.27,35.51,36.47c2.07,2.14,4.29,4.25,6.77,5.87c6.12,3.99,13.62,3.15,18.28-1.73   c4.54-4.75,5.27-11.43,1.37-17.46c-2.33-3.61-5.27-6.86-8.16-10.06c-11.83-13.07-23.56-26.24-35.71-39   c-5.47-5.74-5.57-10.7-2.03-17.72c16.34-32.39,32.09-65.07,48.03-97.65c1.17-2.39,2.42-4.79,3.16-7.32   C1292.07,708.73,1289.8,702.87,1284.44,699.69z"/>
	<path d="M1361.22,835.01c-0.55-8.27-1.3-16.54-1.6-24.82c-0.83-22.55-1.45-45.11-2.2-67.67c-0.08-2.32-0.26-4.67-0.77-6.92   c-1.42-6.29-6.03-9.92-12.02-9.74c-5.74,0.17-10.97,4.35-11.82,10.22c-0.61,4.24-0.47,8.62-0.31,12.93   c0.67,18.57,1.38,37.14,2.25,55.7c0.51,10.93,1.29,21.86,2.08,32.78c0.22,2.96,0.57,6,1.51,8.79c2.12,6.29,6.73,9.04,13.04,8.3   c5.98-0.7,9.68-4.9,10.06-11.61c0.15-2.65,0.02-5.31,0.02-7.96C1361.38,835.02,1361.3,835.02,1361.22,835.01z"/>
	<path d="M2053.59,725.39c-9.09-0.05-16.54,6.97-16.97,15.99c-0.44,9.24,7.21,17.21,16.61,17.31c9.82,0.1,17.32-6.98,17.44-16.46   C2070.81,732.79,2063.36,725.45,2053.59,725.39z"/>
	<path d="M1343.7,692.05c8.43-0.14,15.56-6.99,15.74-15.12c0.19-8.6-6.07-15.14-14.86-15.54c-9.23-0.41-16.11,6.09-16.05,15.16   C1328.6,684.93,1335.7,692.19,1343.7,692.05z"/>
	<path d="M2068.9,538.29c-5.24,0.18-10.09,5.46-9.78,10.64c0.33,5.48,5.35,9.81,10.85,9.36c5.24-0.43,9.27-4.79,9.19-9.93   C2079.07,542.83,2074.25,538.1,2068.9,538.29z"/>
	<path d="M1554.78,72.05c3.71-0.07,6.89-3.29,6.92-7.02c0.04-3.75-3.04-7-6.78-7.15c-4.03-0.17-7.77,3.57-7.5,7.5   C1547.66,68.95,1551.16,72.12,1554.78,72.05z"/>
</g>
</svg>