<svg width="74" height="88" viewBox="0 0 74 88" fill="none" xmlns="http://www.w3.org/2000/svg">
<path d="M36.951 48.44C16.894 48.44 0.575989 65.369 0.575989 86.176C0.575989 87.004 1.24699 87.676 2.07599 87.676H71.826C72.654 87.676 73.326 87.004 73.326 86.176C73.326 65.368 57.009 48.44 36.951 48.44ZM3.60699 84.676C4.36399 66.216 19.031 51.44 36.951 51.44C54.871 51.44 69.538 66.216 70.296 84.676H3.60699Z" fill="black"/>
<path d="M36.323 44.318C47.891 44.318 57.302 34.578 57.302 22.605C57.302 10.632 47.892 0.892029 36.323 0.892029C24.754 0.892029 15.343 10.633 15.343 22.605C15.343 34.577 24.754 44.318 36.323 44.318ZM36.323 3.89203C46.237 3.89203 54.302 12.287 54.302 22.605C54.302 32.923 46.237 41.318 36.323 41.318C26.408 41.318 18.343 32.923 18.343 22.605C18.343 12.287 26.409 3.89203 36.323 3.89203Z" fill="black"/>
</svg>
