<svg width="16" height="8" viewBox="0 0 16 8" fill="none" xmlns="http://www.w3.org/2000/svg">
<path d="M15 3.5C15.2761 3.5 15.5 3.72386 15.5 4C15.5 4.27614 15.2761 4.5 15 4.5L15 3.5ZM12.725 4.5C12.4489 4.5 12.225 4.27614 12.225 4C12.225 3.72386 12.4489 3.5 12.725 3.5L12.725 4.5ZM9.8 3.5C10.0761 3.5 10.3 3.72386 10.3 4C10.3 4.27614 10.0761 4.5 9.8 4.5L9.8 3.5ZM0.646446 4.35356C0.451184 4.1583 0.451184 3.84172 0.646446 3.64645L3.82843 0.464472C4.02369 0.26921 4.34027 0.26921 4.53553 0.464472C4.7308 0.659734 4.7308 0.976316 4.53553 1.17158L1.70711 4.00001L4.53553 6.82843C4.7308 7.02369 4.7308 7.34028 4.53553 7.53554C4.34027 7.7308 4.02369 7.7308 3.82843 7.53554L0.646446 4.35356ZM15 4.5L12.725 4.5L12.725 3.5L15 3.5L15 4.5ZM9.8 4.5L1 4.50001L1 3.50001L9.8 3.5L9.8 4.5Z" fill="#656878"/>
</svg>
