<svg width="40" height="40" viewBox="0 0 40 40" fill="none" xmlns="http://www.w3.org/2000/svg">
<path d="M27 19.5C27.2761 19.5 27.5 19.7239 27.5 20C27.5 20.2761 27.2761 20.5 27 20.5L27 19.5ZM24.725 20.5C24.4489 20.5 24.225 20.2761 24.225 20C24.225 19.7239 24.4489 19.5 24.725 19.5L24.725 20.5ZM21.8 19.5C22.0761 19.5 22.3 19.7239 22.3 20C22.3 20.2761 22.0761 20.5 21.8 20.5L21.8 19.5ZM12.6464 20.3536C12.4512 20.1583 12.4512 19.8417 12.6464 19.6465L15.8284 16.4645C16.0237 16.2692 16.3403 16.2692 16.5355 16.4645C16.7308 16.6597 16.7308 16.9763 16.5355 17.1716L13.7071 20L16.5355 22.8284C16.7308 23.0237 16.7308 23.3403 16.5355 23.5355C16.3403 23.7308 16.0237 23.7308 15.8284 23.5355L12.6464 20.3536ZM27 20.5L24.725 20.5L24.725 19.5L27 19.5L27 20.5ZM21.8 20.5L13 20.5L13 19.5L21.8 19.5L21.8 20.5Z" fill="#656878"/>
<rect x="0.5" y="0.5" width="39" height="39" rx="19.5" stroke="#E0E1E4"/>
</svg>
