<svg width="14" height="9" viewBox="0 0 14 9" fill="none" xmlns="http://www.w3.org/2000/svg">
<path d="M13.7053 1.89656C14.0958 1.50604 14.0958 0.872871 13.7053 0.482346C13.3148 0.0918221 12.6816 0.0918218 12.2911 0.482346L13.7053 1.89656ZM6.9991 7.18856L6.292 7.89566C6.68252 8.28619 7.31569 8.28619 7.70621 7.89566L6.9991 7.18856ZM1.70711 0.482346C1.31658 0.0918221 0.683418 0.0918221 0.292893 0.482346C-0.0976311 0.872871 -0.0976311 1.50604 0.292893 1.89656L1.70711 0.482346ZM12.2911 0.482346L6.292 6.48145L7.70621 7.89566L13.7053 1.89656L12.2911 0.482346ZM7.70621 6.48145L1.70711 0.482346L0.292893 1.89656L6.292 7.89566L7.70621 6.48145Z" fill="#12121A"/>
</svg>
