<svg width="16" height="16" viewBox="0 0 16 16" fill="none" xmlns="http://www.w3.org/2000/svg">
<path d="M11.3527 6.35355C11.5479 6.15829 11.5479 5.84171 11.3527 5.64645C11.1574 5.45118 10.8408 5.45118 10.6456 5.64645L11.3527 6.35355ZM7.99955 8.99955L7.646 9.35311C7.84126 9.54837 8.15784 9.54837 8.35311 9.35311L7.99955 8.99955ZM5.35355 5.64645C5.15829 5.45118 4.84171 5.45118 4.64645 5.64645C4.45118 5.84171 4.45118 6.15829 4.64645 6.35355L5.35355 5.64645ZM10.6456 5.64645L7.646 8.646L8.35311 9.35311L11.3527 6.35355L10.6456 5.64645ZM8.35311 8.646L5.35355 5.64645L4.64645 6.35355L7.646 9.35311L8.35311 8.646Z" fill="white"/>
</svg>
