<svg width="40" height="40" viewBox="0 0 40 40" fill="none" xmlns="http://www.w3.org/2000/svg">
<path d="M40 20C40 8.9543 31.0457 1.1006e-06 20 2.06624e-06C8.9543 3.03189e-06 -2.7141e-06 8.95431 -1.74846e-06 20C-7.8281e-07 31.0457 8.9543 40 20 40C31.0457 40 40 31.0457 40 20Z" fill="#656878"/>
<path fill-rule="evenodd" clip-rule="evenodd" d="M20.0004 20.7996L25.2004 25.9995L26.0003 25.1996L20.8004 19.9996L25.9995 14.8004L25.1996 14.0005L20.0004 19.1996L14.8008 14L14.0008 14.8L19.2004 19.9996L14 25.2L14.8 26L20.0004 20.7996Z" fill="white"/>
</svg>
