<svg width="40" height="40" viewBox="0 0 40 40" fill="none" xmlns="http://www.w3.org/2000/svg">
<path opacity="0.2" d="M0.500006 20C0.500007 9.23044 9.23045 0.499997 20 0.499998C30.7696 0.499999 39.5 9.23045 39.5 20C39.5 30.7696 30.7696 39.5 20 39.5C9.23045 39.5 0.500005 30.7695 0.500006 20Z" stroke="#4F4F4F"/>
<path fill-rule="evenodd" clip-rule="evenodd" d="M19.2929 19.9981L14.6971 24.5939C14.5019 24.7891 14.5019 25.1057 14.6971 25.301C14.8924 25.4962 15.209 25.4962 15.4043 25.301L20 20.7052L24.5957 25.301C24.791 25.4962 25.1076 25.4962 25.3028 25.301C25.4981 25.1057 25.4981 24.7891 25.3028 24.5939L20.7071 19.9981L25.3037 15.4015C25.499 15.2062 25.499 14.8896 25.3037 14.6944C25.1085 14.4991 24.7919 14.4991 24.5966 14.6944L20 19.291L15.4034 14.6944C15.2081 14.4991 14.8915 14.4991 14.6962 14.6944C14.501 14.8896 14.501 15.2062 14.6962 15.4015L19.2929 19.9981Z" fill="#727985"/>
</svg>
