<svg width="40" height="40" viewBox="0 0 40 40" fill="none" xmlns="http://www.w3.org/2000/svg">
<path d="M39.5 20C39.5 9.23045 30.7695 0.500001 20 0.500002C9.23044 0.500003 0.499997 9.23045 0.499998 20C0.499999 30.7696 9.23045 39.5 20 39.5C30.7695 39.5 39.5 30.7696 39.5 20Z" stroke="white"/>
<mask id="path-2-inside-1_5662_29541" fill="white">
<path fill-rule="evenodd" clip-rule="evenodd" d="M20.0004 20.7996L25.2004 25.9995L26.0003 25.1996L20.8004 19.9996L25.9995 14.8004L25.1996 14.0005L20.0004 19.1996L14.8008 14L14.0008 14.8L19.2004 19.9996L14 25.2L14.8 26L20.0004 20.7996Z"/>
</mask>
<path d="M25.2004 25.9995L24.4933 26.7066L25.2004 27.4137L25.9075 26.7066L25.2004 25.9995ZM20.0004 20.7996L20.7075 20.0925L20.0004 19.3853L19.2933 20.0925L20.0004 20.7996ZM26.0003 25.1996L26.7074 25.9067L27.4146 25.1996L26.7074 24.4925L26.0003 25.1996ZM20.8004 19.9996L20.0933 19.2925L19.3862 19.9996L20.0933 20.7067L20.8004 19.9996ZM25.9995 14.8004L26.7066 15.5075L27.4137 14.8004L26.7066 14.0933L25.9995 14.8004ZM25.1996 14.0005L25.9067 13.2934L25.1996 12.5863L24.4925 13.2934L25.1996 14.0005ZM20.0004 19.1996L19.2933 19.9067L20.0004 20.6138L20.7075 19.9067L20.0004 19.1996ZM14.8008 14L15.5079 13.2929L14.8008 12.5858L14.0937 13.2929L14.8008 14ZM14.0008 14.8L13.2937 14.0929L12.5866 14.8L13.2937 15.5071L14.0008 14.8ZM19.2004 19.9996L19.9075 20.7067L20.6147 19.9996L19.9075 19.2925L19.2004 19.9996ZM14 25.2L13.2929 24.4929L12.5858 25.2L13.2929 25.9071L14 25.2ZM14.8 26L14.0929 26.7071L14.8 27.4142L15.5071 26.7071L14.8 26ZM25.9075 25.2924L20.7075 20.0925L19.2933 21.5067L24.4933 26.7066L25.9075 25.2924ZM25.2932 24.4925L24.4933 25.2924L25.9075 26.7066L26.7074 25.9067L25.2932 24.4925ZM20.0933 20.7067L25.2932 25.9067L26.7074 24.4925L21.5075 19.2925L20.0933 20.7067ZM25.2924 14.0933L20.0933 19.2925L21.5075 20.7067L26.7066 15.5075L25.2924 14.0933ZM24.4925 14.7076L25.2924 15.5075L26.7066 14.0933L25.9067 13.2934L24.4925 14.7076ZM20.7075 19.9067L25.9067 14.7076L24.4925 13.2934L19.2933 18.4925L20.7075 19.9067ZM14.0937 14.7071L19.2933 19.9067L20.7075 18.4925L15.5079 13.2929L14.0937 14.7071ZM14.7079 15.5071L15.5079 14.7071L14.0937 13.2929L13.2937 14.0929L14.7079 15.5071ZM19.9075 19.2925L14.7079 14.0929L13.2937 15.5071L18.4933 20.7067L19.9075 19.2925ZM14.7071 25.9071L19.9075 20.7067L18.4933 19.2925L13.2929 24.4929L14.7071 25.9071ZM15.5071 25.2929L14.7071 24.4929L13.2929 25.9071L14.0929 26.7071L15.5071 25.2929ZM19.2933 20.0925L14.0929 25.2929L15.5071 26.7071L20.7075 21.5067L19.2933 20.0925Z" fill="white" mask="url(#path-2-inside-1_5662_29541)"/>
</svg>
