<svg width="40" height="40" viewBox="0 0 40 40" fill="none" xmlns="http://www.w3.org/2000/svg">
<path fill-rule="evenodd" clip-rule="evenodd" d="M26.2279 11.9226C27.0267 11.6563 27.8552 11.5084 28.7132 11.5084C32.8554 11.5084 36.2284 14.8814 36.2875 19.0828C36.2875 19.7041 36.1988 20.3254 36.0508 20.9468L35.2816 20.7397C35.4295 20.1775 35.4887 19.6153 35.4887 19.0532C35.4887 15.3548 32.4708 12.3369 28.7428 12.3369C26.3758 12.3369 24.2159 13.5499 22.9733 15.5915L22.2927 15.1772C23.062 13.8754 24.1863 12.8694 25.5178 12.2481C24.5118 9.61482 21.9673 7.86917 19.1565 7.86917C15.5172 7.86917 12.5289 10.7391 12.3514 14.3488C14.6 14.6447 16.612 15.9169 17.8251 17.8993L17.1446 18.3135C15.9019 16.272 13.742 15.0589 11.3454 15.0589C7.55826 15.0589 4.51077 18.1064 4.51077 21.864H3.71191C3.71191 17.6922 7.14404 14.2896 11.3159 14.2896H11.5526C11.7301 10.2657 15.0734 7.07031 19.1269 7.07031C22.2927 7.07031 25.1035 9.02308 26.2279 11.9226ZM13.5058 19.9408V20.7692L14.275 20.9172V26.3317L13.5945 26.4796V27.308H16.3166V26.4796L15.6361 26.3317V19.9408H13.5058ZM11.9373 22.7522H12.9729H13.0025V21.3912C12.7066 21.0657 12.3516 20.829 11.9373 20.6219C11.4935 20.4148 11.0201 20.326 10.4876 20.326C9.54077 20.326 8.80109 20.6515 8.20934 21.3024C7.61759 21.9533 7.32172 22.7522 7.32172 23.7582V23.9949C7.32172 25.0008 7.61759 25.7997 8.20934 26.4506C8.80109 27.072 9.57036 27.3974 10.4876 27.3974C11.0201 27.3974 11.4935 27.2791 11.9373 27.1015C12.3812 26.8944 12.7362 26.6577 13.0025 26.3323V24.9713H11.9669L11.819 25.8885C11.6711 26.0364 11.5231 26.1252 11.2864 26.2139C11.0793 26.3027 10.813 26.3323 10.5467 26.3323C9.95499 26.3323 9.51118 26.1252 9.18572 25.6813C8.86026 25.2375 8.71232 24.6754 8.71232 23.9653V23.7286C8.71232 23.0481 8.86026 22.4859 9.15613 22.0421C9.48159 21.5983 9.95499 21.3912 10.5467 21.3912C10.8426 21.3912 11.0793 21.4208 11.2864 21.5095C11.4935 21.5983 11.6415 21.6871 11.7894 21.835L11.9373 22.7522ZM16.6417 24.705C16.6417 23.9357 16.8488 23.3144 17.2926 22.841C17.7069 22.3676 18.2986 22.1013 19.0679 22.1013C19.8372 22.1013 20.4289 22.338 20.8431 22.841C21.2573 23.3144 21.494 23.9357 21.494 24.705V24.7937C21.494 25.563 21.2869 26.1843 20.8431 26.6577C20.4289 27.1311 19.8372 27.3678 19.0679 27.3678C18.2986 27.3678 17.7069 27.1311 17.2926 26.6577C16.8784 26.1843 16.6417 25.563 16.6417 24.7937V24.705ZM18.0027 24.7937C18.0027 25.2671 18.0915 25.6222 18.2394 25.918C18.417 26.2139 18.6537 26.3323 19.0383 26.3323C19.3933 26.3323 19.6596 26.1843 19.8076 25.918C19.9851 25.6222 20.0443 25.2671 20.0443 24.7937V24.705C20.0443 24.2612 19.9555 23.8765 19.8076 23.6102C19.63 23.3144 19.3638 23.1664 19.0087 23.1664C18.6537 23.1664 18.3874 23.3144 18.2394 23.6102C18.0619 23.9061 18.0027 24.2612 18.0027 24.705V24.7937ZM25.0148 27.2187C25.2811 27.0707 25.4586 26.8932 25.6361 26.6565L25.7249 27.337H27.5593V26.5086L26.938 26.3606V22.2184H25.5473H24.9556V23.0468L25.5473 23.1948V25.9464C25.4586 26.0648 25.3106 26.1831 25.1627 26.2423C25.0148 26.331 24.8077 26.3606 24.6006 26.3606C24.3343 26.3606 24.1567 26.2719 24.0384 26.1239C23.92 25.976 23.8609 25.7097 23.8609 25.3251V22.248H22.4703H21.9081V23.0764L22.4703 23.2244V25.3251C22.4703 26.0352 22.6182 26.5677 22.9141 26.9228C23.2395 27.2482 23.6538 27.4258 24.1863 27.4258C24.5118 27.4258 24.7781 27.337 25.0148 27.2187ZM31.4059 26.6867C31.258 26.9234 31.0509 27.1009 30.8438 27.2193C30.6367 27.3376 30.3704 27.3968 30.1041 27.3968C29.4828 27.3968 28.9798 27.1601 28.6247 26.7163C28.2697 26.2429 28.0922 25.6511 28.0922 24.8819V24.7931C28.0922 23.9943 28.2697 23.3433 28.6247 22.8403C28.9798 22.3374 29.4532 22.1007 30.1041 22.1007C30.3704 22.1007 30.5775 22.1598 30.7846 22.2782C30.9917 22.3965 31.1692 22.5445 31.3172 22.7516V20.9172L30.6071 20.7692V19.9408H31.3468H32.7374V26.3317L33.3883 26.4796V27.308H31.5243L31.4059 26.6867ZM29.4828 24.8819C29.4828 25.3257 29.5715 25.6807 29.7195 25.947C29.8674 26.2133 30.1041 26.3317 30.4592 26.3317C30.6663 26.3317 30.8438 26.3021 30.9917 26.2133C31.1397 26.1245 31.258 26.0062 31.3468 25.8583V23.6984C31.258 23.5209 31.1397 23.4025 30.9917 23.3137C30.8438 23.225 30.6663 23.1658 30.4887 23.1658C30.1633 23.1658 29.897 23.3137 29.7491 23.6096C29.6011 23.9055 29.5124 24.2901 29.5124 24.7931V24.8819H29.4828ZM7.32172 30.3848C7.49924 30.3552 7.76553 30.3256 8.0614 30.3256C8.44604 30.3256 8.74191 30.4144 8.91943 30.5327C9.06737 30.6511 9.18572 30.8286 9.18572 31.0653C9.18572 31.302 9.09696 31.4795 8.94902 31.6275C8.74191 31.805 8.41645 31.9233 8.03182 31.9233C7.91347 31.9233 7.79512 31.9233 7.70636 31.8938V32.9293H7.32172V30.3848ZM7.73594 31.6275C7.8247 31.6571 7.94305 31.6571 8.0614 31.6571C8.5348 31.6571 8.83067 31.4499 8.83067 31.1245C8.83067 30.7694 8.5348 30.6215 8.12058 30.6215C7.94305 30.6215 7.8247 30.6215 7.73594 30.6511V31.6275ZM10.4281 32.929L10.7535 32.1301H11.8187L12.1441 32.929H12.5584L11.5228 30.3549H11.0494L10.0139 32.929H10.4281ZM11.434 31.1242L11.7299 31.8639H10.8423L11.1382 31.1242C11.1629 31.0501 11.1824 30.9812 11.2011 30.9153L11.2011 30.9152L11.2011 30.9152L11.2011 30.9152C11.2272 30.8231 11.2516 30.737 11.2861 30.6508C11.3081 30.7605 11.3463 30.8702 11.3887 30.992L11.3887 30.992C11.4035 31.0344 11.4188 31.0783 11.434 31.1242ZM14.2448 32.929V31.8343L13.2685 30.3549H13.7123L14.1265 31.065C14.1512 31.1082 14.1746 31.1489 14.197 31.1878L14.197 31.1878L14.1971 31.1879L14.1971 31.1879C14.2819 31.3352 14.3522 31.4572 14.4224 31.5976C14.4926 31.4571 14.5628 31.3352 14.6477 31.1878C14.6701 31.1489 14.6935 31.1082 14.7182 31.065L15.162 30.3549H15.6059L14.5999 31.8343V32.929H14.2448ZM19.3641 30.71C19.3641 31.0058 19.3937 31.4496 19.4232 31.8047L19.4528 32.929H19.8375L19.6599 30.3549H19.157L18.6244 31.5976C18.4764 31.923 18.3877 32.1893 18.2989 32.4556C18.2561 32.2631 18.1824 32.0705 18.1001 31.8556C18.0686 31.7733 18.0358 31.6877 18.003 31.5976L17.4705 30.3549H16.9675L16.7604 32.929H17.145L17.2338 31.8343C17.2634 31.4496 17.293 31.0354 17.293 30.71C17.3817 31.0354 17.5001 31.3609 17.648 31.7159L18.151 32.929H18.4469L18.9794 31.6863C19.0704 31.468 19.1502 31.2609 19.2256 31.065L19.2257 31.0648C19.2729 30.9422 19.3185 30.8239 19.3641 30.71ZM22.9441 31.7162H21.7606V32.6334H23.0625V32.8997H21.3464V30.3256H23.0033V30.5919H21.7606V31.3908H22.9441V31.7162ZM24.5116 30.3549V32.929H24.8963V31.8343C24.8963 31.3905 24.8963 31.0946 24.8667 30.7691C25.0146 31.0354 25.2217 31.3313 25.4288 31.6272L26.3756 32.929H26.7603V30.3549H26.4052V31.4201C26.4052 31.7877 26.4285 32.0621 26.4545 32.3673L26.4644 32.4852C26.3688 32.2701 26.2153 32.055 26.0506 31.8243C26.0114 31.7694 25.9716 31.7136 25.9318 31.6568L24.9554 30.3549H24.5116ZM28.95 30.6508H28.0328V30.3549H30.2815V30.6508H29.3643V32.929H28.9796V30.6508H28.95ZM32.1456 32.6929C31.8498 32.6929 31.6131 32.6042 31.4355 32.5154L31.3468 32.7521C31.4947 32.8409 31.8202 32.9296 32.116 32.9296C32.8261 32.9296 33.1812 32.5746 33.1812 32.1899C33.1812 31.8349 32.9149 31.6278 32.4119 31.4503C31.9977 31.3023 31.8202 31.184 31.8202 30.9473C31.8202 30.7697 31.9681 30.5626 32.3823 30.5626C32.6486 30.5626 32.8557 30.6218 32.9445 30.681L33.0628 30.4147C32.9149 30.3555 32.6782 30.2964 32.3823 30.2964C31.7906 30.2964 31.4059 30.5922 31.4059 31.0064C31.4059 31.3615 31.7018 31.5982 32.2048 31.7461C32.619 31.8645 32.767 32.0124 32.767 32.2491C32.767 32.5154 32.5599 32.6929 32.1456 32.6929Z" fill="#656878"/>
</svg>
