<svg width="14" height="14" viewBox="0 0 14 14" fill="none" xmlns="http://www.w3.org/2000/svg">
<path fill-rule="evenodd" clip-rule="evenodd" d="M10 0C12.2091 0 14 1.79086 14 4V10C14 12.2091 12.2091 14 10 14H9C8.44772 14 8 13.5523 8 13C8 12.4477 8.44772 12 9 12H10C11.1046 12 12 11.1046 12 10V4C12 2.89543 11.1046 2 10 2H9C8.44772 2 8 1.55228 8 1C8 0.447715 8.44772 0 9 0H10ZM7.61656 7.71598H0.720072C0.625511 7.71598 0.531875 7.69746 0.444512 7.66148C0.357149 7.6255 0.277769 7.57276 0.210904 7.50627C0.144039 7.43979 0.0909991 7.36086 0.0548121 7.27399C0.0186251 7.18713 0 7.09402 0 7C0 6.90598 0.0186251 6.81287 0.0548121 6.72601C0.0909991 6.63914 0.144039 6.56021 0.210904 6.49373C0.277769 6.42724 0.357149 6.3745 0.444512 6.33852C0.531875 6.30254 0.625511 6.28402 0.720072 6.28402H7.62616L5.68677 4.20291C5.55691 4.06366 5.488 3.87881 5.4952 3.68904C5.5024 3.49927 5.58512 3.32012 5.72517 3.19099C5.86522 3.06187 6.05112 2.99335 6.24198 3.00051C6.43283 3.00767 6.61301 3.08993 6.74287 3.22918L9.80558 6.50836C9.81402 6.51675 9.82009 6.52515 9.82795 6.53603C9.83127 6.54062 9.83491 6.54565 9.83918 6.55132C9.84485 6.55883 9.85088 6.56596 9.85684 6.57302C9.86605 6.58392 9.8751 6.59462 9.88239 6.60621C9.89552 6.62705 9.90754 6.64856 9.91839 6.67065C9.92159 6.67701 9.92586 6.68338 9.93013 6.68974C9.93866 6.70247 9.94719 6.7152 9.94719 6.72793C9.95671 6.7537 9.96472 6.78 9.9712 6.80669C9.9856 6.82339 9.9856 6.8401 9.9856 6.85919C9.9946 6.90319 9.99942 6.94794 10 6.99284C9.99942 7.03774 9.9946 7.08249 9.9856 7.12649C9.9712 7.1432 9.9712 7.16229 9.9712 7.17899C9.96472 7.20568 9.95671 7.23198 9.94719 7.25775C9.94353 7.26594 9.93848 7.27344 9.93363 7.28063C9.92575 7.29232 9.91839 7.30322 9.91839 7.31503C9.90754 7.33712 9.89552 7.35863 9.88239 7.37947C9.86799 7.39856 9.85118 7.42004 9.83918 7.43436C9.83318 7.44152 9.82778 7.44868 9.82238 7.45584C9.81698 7.463 9.81158 7.47016 9.80558 7.47732L6.73327 10.7708C6.60341 10.9101 6.42323 10.9923 6.23238 10.9995C6.04152 11.0067 5.85562 10.9381 5.71557 10.809C5.57552 10.6799 5.4928 10.5007 5.4856 10.311C5.47839 10.1212 5.5473 9.93634 5.67717 9.79709L7.61656 7.71598Z" fill="white"/>
</svg>
