<svg width="47" height="70" viewBox="0 0 47 70" fill="none" xmlns="http://www.w3.org/2000/svg">
<path d="M23.3882 67.8879C23.3882 67.0589 22.7172 66.3879 21.8882 66.3879L3.38818 66.3879L3.38818 3.38794L21.8882 3.38794C22.7172 3.38794 23.3882 2.71694 23.3882 1.88794C23.3882 1.05894 22.7172 0.387939 21.8882 0.387939L1.88818 0.387939C1.05918 0.387938 0.388184 1.05894 0.388184 1.88794L0.388181 67.8879C0.388181 68.7169 1.05918 69.3879 1.88818 69.3879L21.8882 69.3879C22.7162 69.3879 23.3882 68.7169 23.3882 67.8879Z" fill="black"/>
<path d="M17.827 33.8279C17.534 34.1209 17.388 34.5049 17.388 34.8889C17.388 35.2729 17.534 35.6569 17.827 35.9499L30.827 48.9499C31.412 49.5359 32.363 49.5359 32.948 48.9499C33.534 48.3639 33.534 47.4149 32.948 46.8289L22.509 36.3899L45.5 36.3889C46.329 36.3889 47 35.7179 47 34.8889C47 34.0599 46.329 33.3889 45.5 33.3889L22.509 33.3899L32.948 22.9509C33.534 22.3649 33.534 21.4159 32.948 20.8299C32.363 20.2439 31.412 20.2439 30.827 20.8299L17.827 33.8279Z" fill="black"/>
</svg>
