<svg width="24" height="24" viewBox="0 0 24 24" fill="none" xmlns="http://www.w3.org/2000/svg">
<path fill-rule="evenodd" clip-rule="evenodd" d="M9 1.25C6.42603 1.25 4.42914 1.7602 3.09467 3.09467C1.7602 4.42914 1.25 6.42603 1.25 9V15C1.25 17.574 1.7602 19.5709 3.09467 20.9053C4.42914 22.2398 6.42603 22.75 9 22.75H15C17.574 22.75 19.5709 22.2398 20.9053 20.9053C22.2398 19.5709 22.75 17.574 22.75 15V9C22.75 6.42603 22.2398 4.42914 20.9053 3.09467C19.5709 1.7602 17.574 1.25 15 1.25H9ZM2.75 9C2.75 6.57397 3.2398 5.07086 4.15533 4.15533C5.07086 3.2398 6.57397 2.75 9 2.75H15C17.426 2.75 18.9291 3.2398 19.8447 4.15533C20.7602 5.07086 21.25 6.57397 21.25 9V15C21.25 17.426 20.7602 18.9291 19.8447 19.8447C18.9291 20.7602 17.426 21.25 15 21.25H9C6.57397 21.25 5.07086 20.7602 4.15533 19.8447C3.2398 18.9291 2.75 17.426 2.75 15V9ZM10.4239 7.93256C10.131 8.22545 10.131 8.70033 10.4239 8.99322C10.7168 9.28611 11.1917 9.28611 11.4845 8.99322L12.1137 8.36405C13.0827 7.39505 14.6704 7.39796 15.6365 8.36405C16.6055 9.33304 16.6025 10.9207 15.6365 11.8868L15.0073 12.516C14.7144 12.8089 14.7144 13.2837 15.0073 13.5766C15.3002 13.8695 15.775 13.8695 16.0679 13.5766L16.6971 12.9474C18.2477 11.3968 18.2532 8.85942 16.6971 7.30338C15.1465 5.75277 12.6091 5.74735 11.0531 7.30338L10.4239 7.93256ZM7.30347 16.697C5.74806 15.1416 5.74806 12.6084 7.30347 11.053L7.92848 10.428C8.22138 10.1351 8.69625 10.1351 8.98914 10.428C9.28204 10.7209 9.28204 11.1957 8.98914 11.4886L8.36413 12.1136C7.39451 13.0833 7.39451 14.6667 8.36413 15.6364C9.33022 16.6025 10.9179 16.6054 11.8869 15.6364L12.5119 15.0114C12.8048 14.7185 13.2796 14.7185 13.5725 15.0114C13.8654 15.3043 13.8654 15.7791 13.5725 16.072L12.9475 16.697C11.3915 18.2531 8.85409 18.2476 7.30347 16.697ZM9.80279 13.1357C9.5099 13.4286 9.5099 13.9035 9.80279 14.1963C10.0957 14.4892 10.5706 14.4892 10.8635 14.1963L14.1968 10.863C14.4897 10.5701 14.4897 10.0952 14.1968 9.80231C13.9039 9.50941 13.4291 9.50941 13.1362 9.80231L9.80279 13.1357Z" fill="#656878"/>
</svg>
