<svg width="84" height="62" viewBox="0 0 84 62" fill="none" xmlns="http://www.w3.org/2000/svg">
<path d="M82.191 0.753998H14.259C13.43 0.753998 12.759 1.425 12.759 2.254V10.487C12.759 11.316 13.43 11.987 14.259 11.987C15.088 11.987 15.759 11.316 15.759 10.487V3.754H80.692V41.535H74.496C73.668 41.535 72.996 42.207 72.996 43.035C72.996 43.863 73.668 44.535 74.496 44.535H82.192C83.02 44.535 83.692 43.863 83.692 43.035V2.254C83.691 1.425 83.02 0.753998 82.191 0.753998Z" fill="#231F20"/>
<path d="M70.653 13.328H1.81C0.980998 13.328 0.309998 13.999 0.309998 14.828V59.746C0.309998 60.574 0.980998 61.246 1.81 61.246H70.653C71.481 61.246 72.153 60.574 72.153 59.746V14.828C72.153 13.999 71.481 13.328 70.653 13.328ZM69.153 16.328V47.802L57.96 47.8L47.991 39.527C47.444 39.073 46.652 39.068 46.097 39.508L36.395 47.249L21.695 31.057C21.411 30.744 21.009 30.566 20.587 30.565C20.586 30.565 20.585 30.565 20.584 30.565C20.163 30.565 19.762 30.742 19.478 31.052L3.31 48.717V16.328H69.153ZM3.31 58.246V53.16L20.58 34.291L35.12 50.308C35.654 50.895 36.549 50.966 37.166 50.473L47.014 42.615L56.46 50.455C56.73 50.679 57.068 50.801 57.418 50.801L69.152 50.804V58.248H3.31V58.246Z" fill="#231F20"/>
<path d="M56.666 32.264C59.944 32.264 62.612 29.597 62.612 26.318C62.612 23.04 59.944 20.372 56.666 20.372C53.388 20.372 50.72 23.039 50.72 26.318C50.72 29.597 53.388 32.264 56.666 32.264ZM56.666 23.372C58.291 23.372 59.612 24.693 59.612 26.318C59.612 27.943 58.291 29.264 56.666 29.264C55.041 29.264 53.72 27.942 53.72 26.318C53.72 24.694 55.041 23.372 56.666 23.372Z" fill="#231F20"/>
</svg>
