<svg width="24" height="24" viewBox="0 0 24 24" fill="none" xmlns="http://www.w3.org/2000/svg">
<path d="M15 22.75H9C3.57 22.75 1.25 20.43 1.25 15V9C1.25 3.57 3.57 1.25 9 1.25H15C20.43 1.25 22.75 3.57 22.75 9V15C22.75 20.43 20.43 22.75 15 22.75ZM9 2.75C4.39 2.75 2.75 4.39 2.75 9V15C2.75 19.61 4.39 21.25 9 21.25H15C19.61 21.25 21.25 19.61 21.25 15V9C21.25 4.39 19.61 2.75 15 2.75H9Z" fill="#656878"/>
<path d="M9 10.75C7.48 10.75 6.25 9.52 6.25 8C6.25 6.48 7.48 5.25 9 5.25C10.52 5.25 11.75 6.48 11.75 8C11.75 9.52 10.52 10.75 9 10.75ZM9 6.75C8.31 6.75 7.75 7.31 7.75 8C7.75 8.69 8.31 9.25 9 9.25C9.69 9.25 10.25 8.69 10.25 8C10.25 7.31 9.69 6.75 9 6.75Z" fill="#656878"/>
<path d="M2.66977 19.7005C2.42977 19.7005 2.18977 19.5805 2.04977 19.3705C1.81977 19.0305 1.90977 18.5605 2.25977 18.3305L7.18977 15.0205C8.26977 14.2905 9.75977 14.3805 10.7398 15.2105L11.0698 15.5005C11.5698 15.9305 12.4198 15.9305 12.9098 15.5005L17.0698 11.9305C18.1298 11.0205 19.7998 11.0205 20.8698 11.9305L22.4998 13.3305C22.8098 13.6005 22.8498 14.0705 22.5798 14.3905C22.3098 14.7005 21.8398 14.7405 21.5198 14.4705L19.8898 13.0705C19.3898 12.6405 18.5398 12.6405 18.0398 13.0705L13.8798 16.6405C12.8198 17.5505 11.1498 17.5505 10.0798 16.6405L9.74977 16.3505C9.28977 15.9605 8.52977 15.9205 8.01977 16.2705L3.08977 19.5805C2.95977 19.6605 2.80977 19.7005 2.66977 19.7005Z" fill="#656878"/>
</svg>
