<svg width="62" height="62" viewBox="0 0 62 62" fill="none" xmlns="http://www.w3.org/2000/svg">
<g clip-path="url(#clip0_105_6)">
<path d="M31.2827 15.2646C22.4837 15.2646 15.3237 22.3476 15.3237 31.0546C15.3237 39.7606 22.4827 46.8437 31.2827 46.8437C40.0817 46.8437 47.2417 39.7606 47.2417 31.0546C47.2417 22.3476 40.0817 15.2646 31.2827 15.2646ZM31.2827 41.0306C25.6877 41.0306 21.1367 36.5546 21.1367 31.0546C21.1367 25.5536 25.6877 21.0786 31.2827 21.0786C36.8767 21.0786 41.4287 25.5536 41.4287 31.0546C41.4287 36.5556 36.8777 41.0306 31.2827 41.0306Z" fill="#656878"/>
<path d="M44.2036 0.47876H18.2606C8.5576 0.47876 0.662598 8.37276 0.662598 18.0768V44.2578C0.662598 53.9608 8.5566 61.8558 18.2606 61.8558H44.2036C53.9076 61.8558 61.8016 53.9608 61.8016 44.2578V18.0768C61.8016 8.37376 53.9076 0.47876 44.2036 0.47876ZM55.9776 44.2578C55.9776 50.7498 50.6956 56.0318 44.2036 56.0318H18.2606C11.7686 56.0318 6.4866 50.7498 6.4866 44.2578V18.0768C6.4866 11.5848 11.7686 6.30276 18.2606 6.30276H44.2036C50.6956 6.30276 55.9776 11.5848 55.9776 18.0768V44.2578Z" fill="#656878"/>
<path d="M47.5255 18.3747C49.5993 18.3747 51.2805 16.6936 51.2805 14.6197C51.2805 12.5459 49.5993 10.8647 47.5255 10.8647C45.4517 10.8647 43.7705 12.5459 43.7705 14.6197C43.7705 16.6936 45.4517 18.3747 47.5255 18.3747Z" fill="#656878"/>
</g>
<defs>
<clipPath id="clip0_105_6">
<rect width="61.139" height="61.377" fill="white" transform="translate(0.662598 0.47876)"/>
</clipPath>
</defs>
</svg>
