<svg width="40" height="40" viewBox="0 0 40 40" fill="none" xmlns="http://www.w3.org/2000/svg">
<path d="M35.7296 33.7198V33.7847H35.7909C35.8024 33.7849 35.8137 33.782 35.8237 33.7764C35.8277 33.7736 35.8309 33.7699 35.8331 33.7656C35.8352 33.7612 35.8363 33.7564 35.836 33.7516C35.8363 33.7469 35.8352 33.7422 35.8331 33.7379C35.8309 33.7337 35.8277 33.7301 35.8237 33.7274C35.8138 33.7215 35.8024 33.7186 35.7909 33.7191H35.7296V33.7198ZM35.7915 33.6738C35.8178 33.6722 35.8438 33.6797 35.8651 33.6949C35.8737 33.7019 35.8804 33.7107 35.8849 33.7206C35.8894 33.7306 35.8914 33.7415 35.8909 33.7524C35.8913 33.7618 35.8896 33.7712 35.8861 33.7799C35.8825 33.7886 35.8771 33.7964 35.8702 33.8029C35.8538 33.817 35.8331 33.8255 35.8114 33.8271L35.8935 33.9196H35.8303L35.7548 33.8277H35.7303V33.9196H35.6774V33.674H35.7924L35.7915 33.6738ZM35.7751 34.0044C35.8029 34.0046 35.8303 33.9991 35.8557 33.9882C35.8803 33.9777 35.9025 33.9628 35.9214 33.9442C35.9404 33.9255 35.9555 33.9035 35.9659 33.8792C35.9875 33.8278 35.9875 33.7699 35.9659 33.7185C35.9553 33.6943 35.9402 33.6723 35.9214 33.6535C35.9025 33.6349 35.8803 33.62 35.8557 33.6095C35.8302 33.5992 35.8028 33.594 35.7751 33.5943C35.747 33.594 35.7191 33.5992 35.693 33.6095C35.668 33.6198 35.6452 33.6347 35.6259 33.6535C35.5968 33.683 35.5772 33.7203 35.5694 33.7607C35.5616 33.8011 35.566 33.8429 35.582 33.8808C35.592 33.9052 35.6069 33.9273 35.6259 33.9458C35.6452 33.9646 35.668 33.9795 35.693 33.9898C35.719 34.0007 35.7469 34.0063 35.7751 34.006V34.0044ZM35.7751 33.5352C35.8473 33.5351 35.9166 33.5631 35.9681 33.6131C35.9929 33.6371 36.0126 33.6658 36.0262 33.6974C36.0402 33.7298 36.0475 33.7648 36.0475 33.8001C36.0475 33.8354 36.0402 33.8703 36.0262 33.9028C36.0123 33.9342 35.9926 33.9628 35.9681 33.987C35.9429 34.0109 35.9136 34.0301 35.8815 34.0438C35.8479 34.058 35.8117 34.0652 35.7751 34.065C35.7381 34.0652 35.7015 34.058 35.6674 34.0438C35.635 34.0305 35.6054 34.0112 35.5802 33.987C35.5557 33.9619 35.5362 33.9323 35.5229 33.9C35.5089 33.8675 35.5016 33.8326 35.5016 33.7973C35.5016 33.762 35.5089 33.7271 35.5229 33.6946C35.5364 33.663 35.5562 33.6344 35.581 33.6103C35.6059 33.5858 35.6356 33.5664 35.6682 33.5535C35.7023 33.5393 35.739 33.5321 35.7759 33.5324L35.7751 33.5352ZM10.6313 32.5865C10.6313 32.1181 10.9416 31.7333 11.4489 31.7333C11.9336 31.7333 12.2607 32.1015 12.2607 32.5865C12.2607 33.0715 11.9336 33.4397 11.4489 33.4397C10.9416 33.4397 10.6313 33.0549 10.6313 32.5865ZM12.8133 32.5865V31.2535H12.2272V31.5783C12.0414 31.3383 11.7594 31.1878 11.376 31.1878C10.6206 31.1878 10.0278 31.7736 10.0278 32.5872C10.0278 33.4007 10.6203 33.9865 11.376 33.9865C11.7593 33.9865 12.0414 33.8359 12.2272 33.5961V33.9196H12.8127V32.5865H12.8133ZM32.6157 32.5865C32.6157 32.1181 32.9261 31.7333 33.4335 31.7333C33.9187 31.7333 34.2453 32.1015 34.2453 32.5865C34.2453 33.0715 33.9187 33.4397 33.4335 33.4397C32.9262 33.4397 32.6157 33.0549 32.6157 32.5865ZM34.7984 32.5865V30.1836H34.2118V31.5783C34.026 31.3383 33.744 31.1878 33.3606 31.1878C32.6052 31.1878 32.0124 31.7736 32.0124 32.5872C32.0124 33.4007 32.6049 33.9865 33.3606 33.9865C33.744 33.9865 34.026 33.8359 34.2118 33.5961V33.9196H34.7984V32.5865ZM20.0872 31.7059C20.4648 31.7059 20.7074 31.94 20.7693 32.3522H19.3709C19.4334 31.9674 19.6697 31.7059 20.0873 31.7059H20.0872ZM20.099 31.1863C19.3091 31.1863 18.7566 31.7546 18.7566 32.5857C18.7566 33.433 19.3313 33.9851 20.1382 33.9851C20.5442 33.9851 20.9159 33.8849 21.243 33.6116L20.9558 33.1822C20.7299 33.3608 20.4422 33.461 20.1717 33.461C19.794 33.461 19.4502 33.2881 19.3656 32.8083H21.3668C21.3726 32.7362 21.3785 32.6635 21.3785 32.5855C21.3726 31.7547 20.853 31.1862 20.0987 31.1862L20.099 31.1863ZM27.1745 32.5855C27.1745 32.1171 27.4848 31.7323 27.9921 31.7323C28.4768 31.7323 28.8039 32.1006 28.8039 32.5855C28.8039 33.0705 28.4768 33.4387 27.9921 33.4387C27.4848 33.4387 27.1743 33.0539 27.1743 32.5855H27.1745ZM29.3563 32.5855V31.2535H28.7706V31.5783C28.584 31.3383 28.3027 31.1878 27.9193 31.1878C27.1639 31.1878 26.5712 31.7736 26.5712 32.5872C26.5712 33.4007 27.1636 33.9865 27.9193 33.9865C28.3027 33.9865 28.584 33.8359 28.7706 33.5961V33.9196H29.3565V32.5865L29.3563 32.5855ZM23.8648 32.5855C23.8648 33.3939 24.434 33.9849 25.3026 33.9849C25.7086 33.9849 25.979 33.8956 26.2715 33.6672L25.99 33.1988C25.77 33.3551 25.5389 33.4387 25.2839 33.4387C24.8161 33.433 24.4721 33.0986 24.4721 32.5855C24.4721 32.0725 24.8161 31.7382 25.2839 31.7323C25.5383 31.7323 25.7693 31.816 25.99 31.9723L26.2715 31.5039C25.9785 31.2755 25.7081 31.1862 25.3026 31.1862C24.434 31.1862 23.8648 31.777 23.8648 32.5855ZM31.4201 31.1862C31.082 31.1862 30.8618 31.3425 30.7096 31.5766V31.2535H30.1288V33.9182H30.7155V32.4245C30.7155 31.9835 30.9071 31.7385 31.2902 31.7385C31.4157 31.7367 31.5402 31.7595 31.6567 31.8056L31.8374 31.2594C31.7076 31.2089 31.5385 31.1866 31.4198 31.1866L31.4201 31.1862ZM15.7108 31.4654C15.4289 31.2816 15.0403 31.1866 14.6117 31.1866C13.929 31.1866 13.4894 31.5102 13.4894 32.0397C13.4894 32.4742 13.8166 32.7422 14.4193 32.8258L14.6961 32.8648C15.0175 32.9094 15.1692 32.9931 15.1692 33.1436C15.1692 33.3496 14.9558 33.4671 14.5549 33.4671C14.149 33.4671 13.856 33.3389 13.6585 33.1884L13.3831 33.6402C13.7045 33.8743 14.1104 33.986 14.55 33.986C15.3284 33.986 15.7794 33.6237 15.7794 33.1163C15.7794 32.6479 15.4244 32.4029 14.8379 32.3193L14.5617 32.2796C14.308 32.2472 14.1047 32.1967 14.1047 32.0181C14.1047 31.8233 14.2963 31.706 14.6178 31.706C14.9618 31.706 15.2949 31.8343 15.4581 31.9345L15.7118 31.4661L15.7108 31.4654ZM23.2728 31.1871C22.9347 31.1871 22.7145 31.3435 22.563 31.5776V31.2535H21.9821V33.9182H22.5682V32.4245C22.5682 31.9835 22.7598 31.7385 23.1429 31.7385C23.2684 31.7367 23.393 31.7595 23.5095 31.8056L23.6901 31.2594C23.5604 31.2089 23.3912 31.1866 23.2725 31.1866L23.2728 31.1871ZM18.2717 31.2535H17.3133V30.4452H16.7209V31.2535H16.1742V31.7832H16.7209V32.9987C16.7209 33.617 16.9636 33.9852 17.6569 33.9852C17.9112 33.9852 18.2042 33.9073 18.39 33.7792L18.2207 33.283C18.0459 33.3832 17.8542 33.4337 17.7018 33.4337C17.4089 33.4337 17.3133 33.2551 17.3133 32.9877V31.7836H18.2717V31.2535ZM9.50957 33.9188V32.2465C9.50957 31.6167 9.10365 31.193 8.44927 31.1873C8.10525 31.1816 7.75039 31.2875 7.50194 31.6614C7.31606 31.3659 7.02311 31.1873 6.61127 31.1873C6.32341 31.1873 6.04212 31.2709 5.82191 31.583V31.2535H5.23535V33.9182H5.82651V32.4407C5.82651 31.9781 6.08596 31.7323 6.48663 31.7323C6.87581 31.7323 7.0727 31.9832 7.0727 32.4349V33.9179H7.66517V32.4404C7.66517 31.9778 7.93562 31.732 8.32463 31.732C8.72481 31.732 8.91579 31.9829 8.91579 32.4345V33.9175L9.50957 33.9188Z" fill="#656878"/>
<path fill-rule="evenodd" clip-rule="evenodd" d="M22.8478 14.4618C22.1779 13.0983 21.203 11.9033 19.997 10.9673C18.7912 11.9031 17.8164 13.0979 17.1465 14.4611C16.4766 15.8244 16.1291 17.3204 16.1302 18.8361C16.1291 20.3518 16.4766 21.8478 17.1465 23.2111C17.8164 24.5743 18.7912 25.7691 19.997 26.7049C21.2026 25.7692 22.1773 24.5747 22.8472 23.2117C23.5171 21.8487 23.8647 20.353 23.8638 18.8376C23.8652 17.3217 23.5177 15.8253 22.8478 14.4618ZM15.6977 14.0336C16.3998 12.5262 17.4245 11.1876 18.7011 10.1102H18.7026C17.162 9.25403 15.4215 8.8115 13.6543 8.82654C11.8871 8.84159 10.1546 9.31369 8.62909 10.1959C7.10358 11.0782 5.83818 12.3398 4.95867 13.8554C4.07916 15.3711 3.61617 17.0879 3.61572 18.8353C3.61528 20.5826 4.07739 22.2997 4.95612 23.8158C5.83486 25.3319 7.09961 26.5941 8.62466 27.4771C10.1497 28.3601 11.8819 28.8331 13.6492 28.849C15.4164 28.865 17.1571 28.4233 18.6981 27.5679C17.4225 26.4906 16.3985 25.1523 15.697 23.6455C14.9954 22.1387 14.633 20.4993 14.6347 18.8405C14.6329 17.181 14.9956 15.5409 15.6977 14.0336ZM24.297 23.6455C23.5955 25.1523 22.5715 26.4906 21.2959 27.5679H21.2974C22.8384 28.4233 24.5791 28.865 26.3463 28.849C28.1136 28.8331 29.8458 28.3601 31.3708 27.4771C32.8959 26.5941 34.1607 25.3319 35.0394 23.8158C35.9181 22.2997 36.3802 20.5826 36.3798 18.8353C36.3793 17.0879 35.9163 15.3711 35.0368 13.8554C34.1573 12.3398 32.8919 11.0782 31.3664 10.1959C29.8409 9.31369 28.1084 8.84159 26.3412 8.82654C24.574 8.8115 22.8335 9.25403 21.2929 10.1102C22.5695 11.1876 23.5942 12.5262 24.2963 14.0336C24.9984 15.5409 25.3611 17.181 25.3593 18.8405C25.361 20.4993 24.9986 22.1387 24.297 23.6455ZM36.064 24.6647V25.0543H35.992V24.7601L35.881 25.0141H35.8055L35.6945 24.7608V25.0543H35.6216V24.6647H35.7245L35.8426 24.9321L35.9613 24.6647H36.064ZM35.4129 24.7314V25.0543H35.4122H35.34V24.7314H35.2086V24.6657H35.5442V24.7314H35.4129Z" fill="#656878"/>
</svg>
