<svg width="21" height="18" viewBox="0 0 21 18" fill="none" xmlns="http://www.w3.org/2000/svg">
<path d="M18.7739 2.22656H2.20141C0.989399 2.22656 0 3.21596 0 4.42798V15.2866C0 16.4986 0.989399 17.488 2.20141 17.488H18.7986C20.0106 17.488 21 16.4986 21 15.2866V4.42798C20.9753 3.21596 20.0106 2.22656 18.7739 2.22656ZM19.9859 15.2866C19.9859 15.9545 19.4417 16.4986 18.7739 16.4986H2.20141C1.53357 16.4986 0.989399 15.9545 0.989399 15.2866V4.42798C0.989399 3.76013 1.53357 3.21596 2.20141 3.21596H18.7986C19.4664 3.21596 20.0106 3.76013 20.0106 4.42798V15.2866H19.9859Z" fill="white"/>
<path d="M10.4872 13.9256C12.6456 13.9256 14.3954 12.1759 14.3954 10.0175C14.3954 7.8591 12.6456 6.10938 10.4872 6.10938C8.32883 6.10938 6.5791 7.8591 6.5791 10.0175C6.5791 12.1759 8.32883 13.9256 10.4872 13.9256Z" fill="white"/>
<path d="M16.7707 7.22101C17.2761 7.22101 17.6859 6.81127 17.6859 6.30582C17.6859 5.80037 17.2761 5.39062 16.7707 5.39062C16.2652 5.39062 15.8555 5.80037 15.8555 6.30582C15.8555 6.81127 16.2652 7.22101 16.7707 7.22101Z" fill="white"/>
<path d="M4.32868 0.989399H6.85165C7.12374 0.989399 7.34635 0.766784 7.34635 0.4947C7.34635 0.222615 7.12374 0 6.85165 0H4.32868C4.0566 0 3.83398 0.222615 3.83398 0.4947C3.83398 0.766784 4.0566 0.989399 4.32868 0.989399Z" fill="white"/>
</svg>
