<svg width="16" height="17" viewBox="0 0 16 17" fill="none" xmlns="http://www.w3.org/2000/svg">
<path fill-rule="evenodd" clip-rule="evenodd" d="M5.77129 0.816852C5.2621 0.964592 5.03581 1.53445 5.24342 2.02229C5.45103 2.51016 6.01421 2.72917 6.52864 2.60087C7.57788 2.33914 8.68407 2.36064 9.73175 2.67192C11.088 3.0749 12.2612 3.93821 13.0494 5.1132C13.8375 6.2882 14.1912 7.70128 14.0495 9.109C13.9079 10.5167 13.2797 11.8309 12.2732 12.8253C11.2667 13.8197 9.94492 14.4319 8.53558 14.5565C7.12624 14.6811 5.71757 14.3103 4.55222 13.508C3.38687 12.7056 2.53784 11.522 2.15135 10.1609C1.8528 9.1096 1.84472 8.00321 2.11913 6.95724C2.25367 6.44439 2.04149 5.87859 1.55619 5.66508C1.07089 5.45157 0.498322 5.67093 0.344443 6.17832C-0.0986852 7.63935 -0.116333 9.2039 0.304376 10.6855C0.812902 12.4763 1.93007 14.0337 3.46341 15.0894C4.99676 16.1451 6.85028 16.633 8.70467 16.469C10.5591 16.3051 12.2982 15.4995 13.6226 14.1912C14.9469 12.8828 15.7735 11.1535 15.9599 9.30125C16.1463 7.44897 15.6809 5.58971 14.6439 4.04365C13.6069 2.49763 12.0631 1.36165 10.2786 0.831443C8.80225 0.392803 7.23761 0.391494 5.77129 0.816852ZM2.83889 2.38768C2.4338 2.72974 2.45889 3.34235 2.84698 3.70358L2.92051 3.77202C3.268 4.09546 3.80859 4.07034 4.17776 3.77192C4.54691 3.47349 4.68475 2.95014 4.44131 2.54261L4.38977 2.45637C4.11788 2.00119 3.52413 1.84832 3.10479 2.17275C3.01464 2.24247 2.92599 2.31415 2.83889 2.38768Z" fill="#7B8FF8"/>
</svg>
