<svg width="24" height="24" viewBox="0 0 24 24" fill="none" xmlns="http://www.w3.org/2000/svg">
<path fill-rule="evenodd" clip-rule="evenodd" d="M21.8394 5.24658C22.0315 4.08189 20.8652 3.16196 19.7773 3.62003L2.67703 10.8202C1.48461 11.3222 1.42351 13.046 2.67788 13.566C3.60596 13.9507 5.02633 14.5148 6.45085 14.9845C7.61932 15.3697 8.8931 15.7273 9.91353 15.8285C10.1929 16.1627 10.5445 16.4837 10.9017 16.7774C11.4487 17.2273 12.1074 17.6914 12.7873 18.1357C14.1489 19.0254 15.6597 19.8767 16.678 20.4298C17.8949 21.0908 19.3517 20.3297 19.5705 19.0033L21.8394 5.24658ZM4.59485 12.1827L19.7186 5.81478L17.6009 18.6551C16.6024 18.1121 15.163 17.2989 13.8813 16.4615C13.2329 16.0377 12.6407 15.6181 12.172 15.2327C12.0051 15.0954 11.8638 14.9704 11.7461 14.8585L15.7072 10.8973C16.0977 10.5068 16.0977 9.87359 15.7072 9.48309C15.3167 9.09256 14.6835 9.09256 14.293 9.48309L9.95476 13.8213C9.22132 13.7275 8.19888 13.4549 7.07709 13.0851C6.21377 12.8004 5.34574 12.4771 4.59485 12.1827Z" fill="#656878"/>
</svg>
