<svg width="24" height="24" viewBox="0 0 24 24" fill="none" xmlns="http://www.w3.org/2000/svg">
<path fill-rule="evenodd" clip-rule="evenodd" d="M9 2.75H13.25V6.00002C13.25 7.54157 13.4972 8.80793 14.3447 9.65535C15.1921 10.5028 16.4585 10.75 18 10.75H21.25V15C21.25 17.426 20.7602 18.9291 19.8447 19.8447C18.9291 20.7602 17.426 21.25 15 21.25H9C6.57397 21.25 5.07086 20.7602 4.15533 19.8447C3.2398 18.9291 2.75 17.426 2.75 15V9C2.75 6.57397 3.2398 5.07086 4.15533 4.15533C5.07086 3.2398 6.57397 2.75 9 2.75ZM22.5269 9.4663C22.6575 9.59517 22.7409 9.77157 22.7493 9.96742C22.7498 9.97822 22.75 9.98908 22.75 10V10.0058V15C22.75 17.574 22.2398 19.5709 20.9053 20.9053C19.5709 22.2398 17.574 22.75 15 22.75H9C6.42603 22.75 4.42914 22.2398 3.09467 20.9053C1.7602 19.5709 1.25 17.574 1.25 15V9C1.25 6.42603 1.7602 4.42914 3.09467 3.09467C4.42914 1.7602 6.42603 1.25 9 1.25H13.9998H13.9999H14C14.2089 1.25 14.3978 1.33537 14.5338 1.47312L22.5269 9.4663ZM14.75 3.81068V6.00002C14.75 7.45847 15.0028 8.19211 15.4053 8.59469C15.8079 8.99727 16.5415 9.25002 18 9.25002H20.1893L14.75 3.81068ZM9.59816 13.957C9.65339 13.957 9.69816 14.0018 9.69816 14.057V14.745C9.69816 14.8003 9.65339 14.845 9.59816 14.845H8.71816C8.66294 14.845 8.61816 14.8898 8.61816 14.945V17.817C8.61816 17.8723 8.57339 17.917 8.51816 17.917H7.54216C7.48694 17.917 7.44216 17.8723 7.44216 17.817V14.945C7.44216 14.8898 7.39739 14.845 7.34216 14.845H6.46816C6.41294 14.845 6.36816 14.8003 6.36816 14.745V14.057C6.36816 14.0018 6.41294 13.957 6.46816 13.957H9.59816ZM10.0598 14.108C10.0264 14.0415 10.0747 13.963 10.1492 13.963H11.1883C11.2276 13.963 11.2633 13.9861 11.2795 14.0219L11.9061 15.4117C11.9415 15.4901 12.0527 15.4902 12.0883 15.4119L12.7203 14.0217C12.7365 13.986 12.7721 13.963 12.8113 13.963H13.8507C13.9251 13.963 13.9734 14.0415 13.94 14.108L13.0754 15.8263C13.0613 15.8545 13.0612 15.8876 13.0753 15.9159L14.0008 17.7724C14.034 17.8389 13.9856 17.917 13.9113 17.917H12.8714C12.8321 17.917 12.7965 17.8941 12.7803 17.8583L12.0883 16.3308C12.0528 16.2524 11.9414 16.2526 11.906 16.3311L11.2194 17.858C11.2033 17.8939 11.1676 17.917 11.1282 17.917H10.0885C10.0142 17.917 9.96587 17.8389 9.99901 17.7724L10.9246 15.9159C10.9386 15.8876 10.9386 15.8545 10.9244 15.8263L10.0598 14.108ZM17.6315 14.057C17.6315 14.0018 17.5868 13.957 17.5315 13.957H14.4015C14.3463 13.957 14.3015 14.0018 14.3015 14.057V14.745C14.3015 14.8003 14.3463 14.845 14.4015 14.845H15.2755C15.3308 14.845 15.3755 14.8898 15.3755 14.945V17.817C15.3755 17.8723 15.4203 17.917 15.4755 17.917H16.4515C16.5068 17.917 16.5515 17.8723 16.5515 17.817V14.945C16.5515 14.8898 16.5963 14.845 16.6515 14.845H17.5315C17.5868 14.845 17.6315 14.8003 17.6315 14.745V14.057Z" fill="#656878"/>
</svg>
