<svg width="61" height="78" viewBox="0 0 61 78" fill="none" xmlns="http://www.w3.org/2000/svg">
<path d="M60.567 18.924L42.307 0.445C42.025 0.16 41.641 -0.0010004 41.24 -0.0010004H1.5C0.671 -0.0010004 0 0.67 0 1.499V76.499C0 77.328 0.671 77.999 1.5 77.999H59.5C60.329 77.999 61 77.328 61 76.499V19.978C61 19.584 60.844 19.205 60.567 18.924ZM43 5.415L55.93 18.5H43V5.415ZM3 75V3H40V20C40 20.829 40.671 21.5 41.5 21.5H58V75H3Z" fill="black"/>
<path d="M20 51.5H9C8.171 51.5 7.5 52.171 7.5 53C7.5 53.829 8.171 54.5 9 54.5H13V66.5C13 67.329 13.671 68 14.5 68C15.329 68 16 67.329 16 66.5V54.5H20C20.829 54.5 21.5 53.829 21.5 53C21.5 52.171 20.829 51.5 20 51.5Z" fill="black"/>
<path d="M52 51.5H41C40.171 51.5 39.5 52.171 39.5 53C39.5 53.829 40.171 54.5 41 54.5H45V66.5C45 67.329 45.671 68 46.5 68C47.329 68 48 67.329 48 66.5V54.5H52C52.829 54.5 53.5 53.829 53.5 53C53.5 52.171 52.829 51.5 52 51.5Z" fill="black"/>
<path d="M35.811 51.738C35.115 51.289 34.186 51.491 33.738 52.189L30.5 57.226L27.262 52.189C26.814 51.492 25.886 51.289 25.189 51.738C24.492 52.186 24.29 53.114 24.738 53.811L28.717 60L24.738 66.189C24.29 66.886 24.492 67.814 25.189 68.262C25.44 68.424 25.721 68.5 25.999 68.5C26.492 68.5 26.976 68.257 27.262 67.811L30.5 62.774L33.738 67.811C34.025 68.257 34.508 68.5 35.001 68.5C35.279 68.5 35.56 68.423 35.811 68.262C36.508 67.814 36.71 66.886 36.262 66.189L32.283 60L36.262 53.811C36.71 53.114 36.508 52.186 35.811 51.738Z" fill="black"/>
</svg>
