<svg width="24" height="24" viewBox="0 0 24 24" fill="none" xmlns="http://www.w3.org/2000/svg">
<path fill-rule="evenodd" clip-rule="evenodd" d="M9 1.25C6.42603 1.25 4.42914 1.7602 3.09467 3.09467C1.7602 4.42914 1.25 6.42603 1.25 9V15C1.25 17.574 1.7602 19.5709 3.09467 20.9053C4.42914 22.2398 6.42603 22.75 9 22.75H15C17.574 22.75 19.5709 22.2398 20.9053 20.9053C22.2398 19.5709 22.75 17.574 22.75 15V9C22.75 6.42603 22.2398 4.42914 20.9053 3.09467C19.5709 1.7602 17.574 1.25 15 1.25H9ZM2.75 9C2.75 6.57397 3.2398 5.07086 4.15533 4.15533C5.07086 3.2398 6.57397 2.75 9 2.75H15C17.426 2.75 18.9291 3.2398 19.8447 4.15533C20.7602 5.07086 21.25 6.57397 21.25 9V15C21.25 17.426 20.7602 18.9291 19.8447 19.8447C18.9291 20.7602 17.426 21.25 15 21.25H9C6.57397 21.25 5.07086 20.7602 4.15533 19.8447C3.2398 18.9291 2.75 17.426 2.75 15V9ZM9.84961 10.52C9.84961 9.7251 10.1244 9.36509 10.3546 9.2328C10.586 9.09979 11.0383 9.04455 11.7254 9.44001L13.0042 10.1793L14.2854 10.92C14.9708 11.3146 15.1471 11.7331 15.1471 12C15.1471 12.267 14.9708 12.6854 14.2854 13.0801L14.2842 13.0807L11.7248 14.5604C11.0396 14.9548 10.5881 14.8983 10.3557 14.7642C10.1236 14.6302 9.84961 14.2685 9.84961 13.48V10.52ZM12.4738 8.14007C11.5113 7.58587 10.4631 7.44033 9.60715 7.93228C8.74982 8.42499 8.34961 9.40498 8.34961 10.52V13.48C8.34961 14.5916 8.75067 15.5699 9.60602 16.0634C10.4611 16.5568 11.5094 16.4153 12.4738 15.86L15.0346 14.3796C15.9988 13.8242 16.6471 12.9878 16.6471 12C16.6471 11.0122 15.998 10.1754 15.0338 9.62007L13.755 8.88074L12.475 8.14074L12.4738 8.14007Z" fill="#656878"/>
</svg>
