<svg width="78" height="68" viewBox="0 0 78 68" fill="none" xmlns="http://www.w3.org/2000/svg">
<path d="M75.854 0.296997H2.14799C1.31899 0.296997 0.647995 0.967997 0.647995 1.797V66.201C0.647995 67.029 1.31899 67.701 2.14799 67.701H75.854C76.682 67.701 77.354 67.029 77.354 66.201V1.797C77.354 0.967997 76.682 0.296997 75.854 0.296997ZM74.354 3.297V17.86H3.64799V3.297H74.354ZM3.64799 64.701V20.86H74.354V64.701H3.64799Z" fill="black"/>
<path d="M9.728 11.68H15.262C16.091 11.68 16.762 11.009 16.762 10.18C16.762 9.35099 16.091 8.67999 15.262 8.67999H9.728C8.899 8.67999 8.228 9.35099 8.228 10.18C8.228 11.009 8.899 11.68 9.728 11.68Z" fill="black"/>
<path d="M21.589 11.68H27.124C27.953 11.68 28.624 11.009 28.624 10.18C28.624 9.35099 27.953 8.67999 27.124 8.67999H21.589C20.76 8.67999 20.089 9.35099 20.089 10.18C20.089 11.009 20.76 11.68 21.589 11.68Z" fill="black"/>
<path d="M51.572 41.448L32.23 28.182C31.77 27.866 31.174 27.832 30.682 28.092C30.19 28.351 29.881 28.863 29.881 29.419V54.432C29.881 54.974 30.173 55.474 30.646 55.74C30.875 55.868 31.128 55.932 31.381 55.932C31.651 55.932 31.921 55.859 32.16 55.714L51.501 43.968C51.937 43.703 52.208 43.237 52.222 42.728C52.237 42.218 51.992 41.736 51.572 41.448ZM32.882 51.766V32.267L47.96 42.609L32.882 51.766Z" fill="black"/>
</svg>
