<svg width="40" height="40" viewBox="0 0 40 40" fill="none" xmlns="http://www.w3.org/2000/svg">
<path d="M17.0722 15.6602L14.7441 26.3833H17.566L19.8235 15.6602H17.0722Z" fill="#656878"/>
<path d="M12.9805 15.6604L10.0881 22.9267L8.88878 16.7186C8.74769 16.0131 8.18332 15.6604 7.61895 15.6604H2.89231L2.82178 15.9426C3.80943 16.1542 4.86765 16.5069 5.57312 16.8597C5.9964 17.0713 6.06692 17.2829 6.20801 17.7768L8.39499 26.313H11.3579L15.8729 15.5898H12.9805V15.6604Z" fill="#656878"/>
<path d="M34.9208 15.6602H32.5222C31.9578 15.6602 31.5346 15.9424 31.3229 16.4362L27.1606 26.3833H30.053L30.6175 24.7607H34.1448L34.4975 26.3833H37.0372L34.9208 15.6602ZM31.5346 22.5737L33.016 18.5526L33.8626 22.5737H31.5346Z" fill="#656878"/>
<path d="M23.4919 18.6238C23.4919 18.2711 23.8446 17.8478 24.6912 17.7067C25.1145 17.6362 26.1727 17.6362 27.4425 18.2006L27.9363 15.9431C27.3014 15.7314 26.3843 15.4492 25.3261 15.4492C22.5748 15.4492 20.67 16.9307 20.67 18.9766C20.67 20.5286 22.081 21.3751 23.0686 21.869C24.1268 22.3628 24.4795 22.7155 24.4795 23.2094C24.4795 23.9148 23.633 24.2676 22.7864 24.2676C21.3755 24.2676 20.5995 23.9148 19.9645 23.5621L19.4707 25.8901C20.1056 26.1723 21.3049 26.4545 22.5748 26.4545C25.4672 26.4545 27.3719 25.0436 27.3719 22.7861C27.3719 20.1053 23.4213 19.8937 23.4919 18.6238Z" fill="#656878"/>
</svg>
