<svg width="57" height="40" viewBox="0 0 57 40" fill="none" xmlns="http://www.w3.org/2000/svg">
<g clip-path="url(#clip0_105_2)">
<path d="M55.7546 8.26237C55.2256 4.08537 52.8126 1.46537 48.5296 1.07837C43.6256 0.635371 33.0096 0.380371 28.0856 0.380371C18.0136 0.380371 13.5126 0.626371 8.7496 1.11937C4.2106 1.58837 2.2236 3.60537 1.4426 7.76937C0.895598 10.6874 0.662598 13.4204 0.662598 19.8794C0.662598 25.6814 0.936598 29.3304 1.3606 32.4004C1.9436 36.6164 4.8376 38.9854 9.0786 39.3384C14.0126 39.7494 23.8966 39.9544 28.7836 39.9544C33.5056 39.9544 44.1326 39.7084 48.8576 39.1744C53.0866 38.6964 55.0976 36.4374 55.7546 32.2774C55.7546 32.2774 56.4526 27.7204 56.4526 19.8384C56.4526 15.3504 56.1246 11.1764 55.7546 8.26237ZM22.6256 28.0084V11.9704L37.8966 19.9074L22.6256 28.0084Z" fill="#656878"/>
</g>
<defs>
<clipPath id="clip0_105_2">
<rect width="55.79" height="39.574" fill="white" transform="translate(0.662598 0.380371)"/>
</clipPath>
</defs>
</svg>
